<?xml version="1.0" encoding="UTF-8" standalone="no"?>
<svg
   xmlns:dc="http://purl.org/dc/elements/1.1/"
   xmlns:cc="http://creativecommons.org/ns#"
   xmlns:rdf="http://www.w3.org/1999/02/22-rdf-syntax-ns#"
   xmlns:svg="http://www.w3.org/2000/svg"
   xmlns="http://www.w3.org/2000/svg"
   viewBox="0 0 369.33334 149.33333"
   height="149.33333"
   width="369.33334"
   xml:space="preserve"
   id="svg2"
   version="1.1"><metadata
     id="metadata8"><rdf:RDF><cc:Work
         rdf:about=""><dc:format>image/svg+xml</dc:format><dc:type
           rdf:resource="http://purl.org/dc/dcmitype/StillImage" /></cc:Work></rdf:RDF></metadata><defs
     id="defs6" /><g
     transform="matrix(1.3333333,0,0,-1.3333333,0,149.33333)"
     id="g10"><g
       transform="scale(0.1)"
       id="g12"><path
         id="path14"
         style="fill:#e64c1e;fill-opacity:1;fill-rule:nonzero;stroke:none"
         d="m 603.855,208.02 c -195.781,0 -355.015,159.238 -355.015,355.015 0,195.742 159.234,355.024 355.015,355.024 195.774,0 355.012,-159.282 355.012,-355.024 0,-195.777 -159.238,-355.015 -355.012,-355.015 z m 0,739.277 c -212.246,0 -384.253,-172.055 -384.253,-384.262 0,-212.222 172.007,-384.297 384.253,-384.297 212.25,0 384.25,172.075 384.25,384.297 0,212.207 -172,384.262 -384.25,384.262" /><path
         id="path16"
         style="fill:#e64c1e;fill-opacity:1;fill-rule:nonzero;stroke:none"
         d="m 792.98,675.793 c -11.015,0 -20.429,6.285 -25.214,15.418 H 462.512 c -5.586,-0.086 -33.926,-2.078 -33.926,-33.977 v -94.148 -0.051 c 0,-32.969 30.457,-33.933 33.926,-33.933 l 200.484,-0.039 c 4.785,9.14 14.223,15.429 25.258,15.429 15.769,0 28.555,-12.781 28.555,-28.554 0,-15.782 -12.786,-28.567 -28.555,-28.567 -11.035,0 -20.449,6.262 -25.234,15.395 H 462.512 c -24.199,0 -60.215,16.074 -60.215,60.269 v 94.199 c 0,44.243 36.016,60.293 60.215,60.293 h 305.254 c 4.785,9.121 14.199,15.395 25.214,15.395 15.782,0 28.575,-12.785 28.575,-28.559 0,-15.777 -12.793,-28.57 -28.575,-28.57 z m 12.481,-206.977 c 0,-44.175 -36.059,-60.242 -60.273,-60.242 H 439.949 c -4.761,-9.133 -14.195,-15.398 -25.23,-15.398 -15.774,0 -28.559,12.793 -28.559,28.523 0,15.774 12.785,28.567 28.559,28.567 11.035,0 20.469,-6.274 25.23,-15.403 h 305.239 c 5.605,0.086 33.933,2.063 33.933,33.953 v 0.039 94.18 c 0,32.988 -30.461,33.957 -33.933,33.957 L 544.68,596.953 c -4.746,-9.094 -14.2,-15.383 -25.2,-15.383 -15.781,0 -28.589,12.817 -28.589,28.559 0,15.769 12.808,28.57 28.589,28.57 11,0 20.454,-6.289 25.2,-15.429 l 200.508,0.023 c 24.214,0 60.273,-16.074 60.273,-60.258 z M 603.855,891.75 c -181.25,0 -328.699,-147.465 -328.699,-328.715 0,-181.265 147.449,-328.719 328.699,-328.719 181.235,0 328.711,147.454 328.711,328.719 0,181.25 -147.476,328.715 -328.711,328.715" /><path
         id="path18"
         style="fill:#57555a;fill-opacity:1;fill-rule:nonzero;stroke:none"
         d="m 1218.5,543.699 h -107.05 c -5.84,0 -10.57,4.719 -10.57,10.571 0,5.839 4.73,10.585 10.57,10.585 h 107.05 c 15.16,0 27.49,12.301 27.49,27.458 0,15.167 -12.33,27.46 -27.49,27.46 h -69 c -26.82,0 -48.62,21.829 -48.62,48.633 0,26.789 21.8,48.606 48.62,48.606 h 103.51 c 5.85,0 10.59,-4.735 10.59,-10.559 0,-5.828 -4.74,-10.574 -10.59,-10.574 H 1149.5 c -15.17,0 -27.5,-12.324 -27.5,-27.473 0,-15.152 12.33,-27.476 27.5,-27.476 h 69 c 26.82,0 48.64,-21.809 48.64,-48.617 0,-26.805 -21.82,-48.614 -48.64,-48.614" /><path
         id="path20"
         style="fill:#57555a;fill-opacity:1;fill-rule:nonzero;stroke:none"
         d="m 1804.66,543.699 h -107.05 c -5.82,0 -10.57,4.719 -10.57,10.571 0,5.839 4.75,10.585 10.57,10.585 h 107.05 c 15.15,0 27.51,12.301 27.51,27.458 0,15.167 -12.36,27.46 -27.51,27.46 h -69.03 c -26.76,0 -48.59,21.829 -48.59,48.633 0,26.789 21.83,48.606 48.59,48.606 h 103.57 c 5.82,0 10.54,-4.735 10.54,-10.559 0,-5.828 -4.72,-10.574 -10.54,-10.574 h -103.57 c -15.13,0 -27.47,-12.324 -27.47,-27.473 0,-15.152 12.34,-27.476 27.47,-27.476 h 69.03 c 26.83,0 48.61,-21.809 48.61,-48.617 0,-26.805 -21.78,-48.614 -48.61,-48.614" /><path
         id="path22"
         style="fill:#57555a;fill-opacity:1;fill-rule:nonzero;stroke:none"
         d="m 2242.19,543.699 h -114.13 c -26.82,0 -48.62,21.809 -48.62,48.614 0,15.39 7.22,29.14 18.43,38.039 -11.21,8.914 -18.43,22.648 -18.43,38.054 0,26.789 21.8,48.606 48.62,48.606 h 114.13 c 5.82,0 10.57,-4.735 10.57,-10.559 0,-5.828 -4.75,-10.574 -10.57,-10.574 h -114.13 c -15.14,0 -27.46,-12.324 -27.46,-27.473 0,-15.152 12.32,-27.476 27.46,-27.476 h 76.11 c 5.81,0 10.56,-4.746 10.56,-10.578 0,-5.84 -4.75,-10.579 -10.56,-10.579 h -76.11 c -15.14,0 -27.46,-12.293 -27.46,-27.46 0,-15.157 12.32,-27.458 27.46,-27.458 h 114.13 c 5.82,0 10.57,-4.746 10.57,-10.585 0,-5.852 -4.75,-10.571 -10.57,-10.571" /><path
         id="path24"
         style="fill:#57555a;fill-opacity:1;fill-rule:nonzero;stroke:none"
         d="m 2433.78,543.699 h -100.01 c -26.82,0 -48.6,21.809 -48.6,48.614 v 76.093 c 0,26.789 21.78,48.606 48.6,48.606 h 100.01 c 5.84,0 10.56,-4.735 10.56,-10.559 0,-5.828 -4.72,-10.574 -10.56,-10.574 h -100.01 c -15.15,0 -27.48,-12.324 -27.48,-27.473 v -76.093 c 0,-15.157 12.33,-27.458 27.48,-27.458 h 100.01 c 5.84,0 10.56,-4.746 10.56,-10.585 0,-5.852 -4.72,-10.571 -10.56,-10.571" /><path
         id="path26"
         style="fill:#57555a;fill-opacity:1;fill-rule:nonzero;stroke:none"
         d="m 1408.74,543.699 h -57.08 c -26.76,0 -48.51,21.75 -48.6,48.481 v 0.133 114.14 c 0,5.824 4.73,10.559 10.55,10.559 5.85,0 10.6,-4.735 10.6,-10.559 v -114.07 -0.07 c 0,-15.133 12.32,-27.458 27.43,-27.458 h 0.02 57.06 0.05 c 15.15,0 27.43,12.325 27.43,27.458 v 114.14 c 0,5.824 4.75,10.559 10.59,10.559 5.82,0 10.54,-4.735 10.54,-10.559 v -114.14 c 0,-26.805 -21.78,-48.614 -48.59,-48.614" /><path
         id="path28"
         style="fill:#57555a;fill-opacity:1;fill-rule:nonzero;stroke:none"
         d="m 1637,543.699 c -5.83,0 -10.57,4.719 -10.57,10.571 v 114.136 c 0,15.117 -12.27,27.453 -27.45,27.473 h -0.01 -57.09 -0.02 c -15.13,-0.02 -27.45,-12.356 -27.45,-27.488 V 668.367 554.27 c 0,-5.852 -4.74,-10.571 -10.55,-10.571 -5.83,0 -10.58,4.719 -10.58,10.571 v 114.136 l 0.01,0.071 c 0.02,26.757 21.83,48.535 48.6,48.535 h 0.02 57.03 0.03 c 26.79,0 48.61,-21.817 48.61,-48.606 V 554.27 c 0,-5.852 -4.72,-10.571 -10.58,-10.571" /><path
         id="path30"
         style="fill:#57555a;fill-opacity:1;fill-rule:nonzero;stroke:none"
         d="m 1903.32,543.699 c -5.84,0 -10.56,4.719 -10.56,10.571 v 152.183 c 0,5.824 4.72,10.559 10.56,10.559 h 102.18 c 26.8,0 48.64,-21.817 48.64,-48.606 v -21.129 c 0,-26.816 -21.84,-48.617 -48.64,-48.617 v -0.058 h -91.62 V 554.27 c 0,-5.852 -4.73,-10.571 -10.56,-10.571 m 10.56,152.18 v -76.16 h 91.62 v 0.078 c 15.14,0 27.49,12.32 27.49,27.48 v 21.129 c 0,15.149 -12.35,27.473 -27.49,27.473 h -91.62" /><path
         id="path32"
         style="fill:#57555a;fill-opacity:1;fill-rule:nonzero;stroke:none"
         d="m 1113.25,433.328 c -7.34,0 -13.31,5.957 -13.31,13.313 0,7.343 5.97,13.308 13.31,13.308 5.28,0 9.97,-3.094 12.11,-7.937 h 218.85 v -10.75 h -218.85 c -2.14,-4.844 -6.82,-7.934 -12.11,-7.934" /><path
         id="path34"
         style="fill:#57555a;fill-opacity:1;fill-rule:nonzero;stroke:none"
         d="m 2431.96,433.328 c -5.27,0 -9.97,3.09 -12.11,7.934 H 2201 v 10.75 h 218.85 c 2.14,4.843 6.83,7.937 12.11,7.937 7.34,0 13.32,-5.965 13.32,-13.308 0,-7.356 -5.98,-13.313 -13.32,-13.313" /><path
         id="path36"
         style="fill:#57555a;fill-opacity:1;fill-rule:nonzero;stroke:none"
         d="m 1462.48,408.594 h -11.05 v 25.469 h -38.95 v -25.469 h -11.04 v 56.316 c 0,6.508 3.32,12.063 9.35,15.649 4.98,2.984 13.07,4.48 21.15,4.48 8.08,0 16.14,-1.496 21.06,-4.504 5.44,-3.222 8.71,-8.14 9.25,-13.883 l 0.22,-1.613 0.01,-56.445 m -30.54,65.547 c -6.09,0 -12.19,-0.985 -15.43,-2.942 -2.6,-1.582 -4.03,-3.816 -4.03,-6.289 v -19.812 h 38.95 v 19.812 c 0,3.254 -2.61,5.332 -4.17,6.289 -3.19,1.965 -9.25,2.942 -15.32,2.942" /><path
         id="path38"
         style="fill:#57555a;fill-opacity:1;fill-rule:nonzero;stroke:none"
         d="m 1560.83,408.594 h -21.55 c -17.27,0 -27.57,8.308 -27.57,22.226 v 53.368 h 11.15 V 430.82 c 0,-8.164 8.85,-11.062 16.42,-11.062 h 21.55 v -11.164" /><path
         id="path40"
         style="fill:#57555a;fill-opacity:1;fill-rule:nonzero;stroke:none"
         d="m 1654.51,408.594 h -21.56 c -17.27,0 -27.57,8.308 -27.57,22.226 v 53.368 h 11.17 V 430.82 c 0,-8.164 8.84,-11.062 16.4,-11.062 h 21.56 v -11.164" /><path
         id="path42"
         style="fill:#57555a;fill-opacity:1;fill-rule:nonzero;stroke:none"
         d="m 1700.81,408.594 h 11.043 v 75.7305 h -11.043 z" /><path
         id="path44"
         style="fill:#57555a;fill-opacity:1;fill-rule:nonzero;stroke:none"
         d="m 1822.88,408.594 h -11.03 v 25.469 h -38.96 v -25.469 h -11.03 v 56.316 c 0,6.508 3.33,12.063 9.36,15.649 4.96,2.988 13.05,4.484 21.14,4.484 8.08,0 16.15,-1.496 21.06,-4.508 5.38,-3.183 8.64,-8.035 9.23,-13.699 l 0.23,-1.816 v -56.426 m -30.52,65.558 c -6.09,0 -12.2,-0.992 -15.44,-2.953 -2.59,-1.582 -4.03,-3.816 -4.03,-6.289 v -19.812 h 38.96 v 19.812 c 0,3.305 -2.61,5.356 -4.15,6.274 -3.21,1.984 -9.27,2.968 -15.34,2.968" /><path
         id="path46"
         style="fill:#57555a;fill-opacity:1;fill-rule:nonzero;stroke:none"
         d="m 1933.14,408.594 h -9.83 l -40.16,52.539 0.01,-52.539 h -11.03 v 75.594 h 9.97 l 40.02,-52.364 v 52.364 h 11.02 v -75.594" /><path
         id="path48"
         style="fill:#57555a;fill-opacity:1;fill-rule:nonzero;stroke:none"
         d="m 2012.46,408.02 c -5.07,0 -9.8,0.507 -13.34,1.445 -10.68,2.781 -17.14,9.805 -17.26,18.777 v 36.395 c 0.12,9.886 7.53,17.179 19.8,19.523 3.19,0.578 6.86,0.86 10.55,0.86 5.72,0 11.48,-0.68 15.53,-1.993 9.76,-3.308 15.13,-9.843 15.13,-18.39 v -2.176 h -11.03 v 2.176 c 0,4.726 -4.7,7.023 -7.49,7.968 -2.96,0.981 -7.34,1.477 -11.75,1.477 -3.13,0 -6.27,-0.25 -8.92,-0.762 -2.53,-0.488 -10.8,-2.558 -10.8,-8.683 v -36.356 c 0,-5.215 6.36,-7.461 9.08,-8.183 2.85,-0.731 6.66,-1.09 10.47,-1.09 4.05,0 8.1,0.406 10.99,1.207 2.53,0.703 8.42,2.922 8.42,8.066 v 2.149 l 11.03,0.195 v -2.219 c 0,-8.965 -5.98,-15.808 -16.41,-18.789 -3.73,-1.031 -8.7,-1.597 -14,-1.597" /><path
         id="path50"
         style="fill:#57555a;fill-opacity:1;fill-rule:nonzero;stroke:none"
         d="m 2143.78,408.586 -28.1,0.152 c -6.2,0.117 -12.35,1.782 -16.87,4.555 -5.96,3.648 -9.09,9.02 -9.09,15.523 v 55.508 h 54.06 v -11.031 h -43.04 v -21.25 h 43.04 v -11.176 h -43.06 l -0.01,-1.012 c -0.05,-2.796 -0.19,-11.242 0.46,-13.125 1.54,-4.582 9.07,-6.972 15.7,-6.972 h 26.91 v -11.172" /></g></g></svg>