<svg height="920" width="1000" style="border-style: solid;">
  <defs>
    <linearGradient id="grad" x1="0%" y1="0%" x2="100%" y2="0%">
      <stop offset="0%" style="stop-color:blue;" />
      <stop offset="100%" style="stop-color:red;" />
    </linearGradient>
  </defs>

  <!-- lauhdutin -->
  <text x="870" y="500" transform="rotate(90 870,500)" font-size="20" text-anchor="middle" font-weight="bold">Lauhdutin</text>

  <path d="M500,100 H750 v100 h100
           v25 h-200 v25 h200 v25 h-200 v25 h200 v25 h-200 v25 h200 v25 h-200 v25 h200 v25 h-200 v25 h200 v25 h-200 v25 h200 v25 h-200 v25 h200 v25 h-200 v25 h200 v25 h-200 v25 h200 v25 h-200 v25 h200 v25 h-200 v25 h200
           v25 h-100 v100 h-250 "
        fill="none"
        stroke="red"
        stroke-width="10"/>

  <polygon points="900,300 980,500 900,700"
           fill="red"/>

  <!-- höyrystin -->
  <text x="130" y="500" transform="rotate(-90 130,500)" font-size="20" text-anchor="middle" font-weight="bold">Höyrystin</text>

  <path d="M500,100 H250 v100 h100
           v25 h-200 v25 h200 v25 h-200 v25 h200 v25 h-200 v25 h200 v25 h-200 v25 h200 v25 h-200 v25 h200 v25 h-200 v25 h200 v25 h-200 v25 h200 v25 h-200 v25 h200 v25 h-200 v25 h200 v25 h-200 v25 h200 v25 h-200 v25 h200
           v25 h-100 v100 h250"
        fill="none"
        stroke="blue"
        stroke-width="10"/>
  <polygon points="100,300 20,500 100,700"
           fill="blue"/>

  <!-- kompressori -->
  <circle cx="500"
          cy="100"
          r="40"
          fill="url(#grad)"/>
  <circle cx="500"
          cy="100"
          r="10"
          fill="black"/>
  <circle cx="500"
          cy="100"
          r="40"
          fill="none"
          stroke="black"
          stroke-width="5"/>
  <path d="M500,100 l37.587,13.68"  stroke="black" stroke-width="5"/>
  <path d="M500,100 l6.95,39.39"  stroke="black" stroke-width="5"/>
  <path d="M500,100 l-30.64,25.71"  stroke="black" stroke-width="5"/>
  <path d="M500,100 l-37.59,-13.68"  stroke="black" stroke-width="5"/>
  <path d="M500,100 l-6.95,-39.39"  stroke="black" stroke-width="5"/>
  <path d="M500,100 l30.64,-25.71"  stroke="black" stroke-width="5"/>
  <text x="500" y="46" font-size="20" text-anchor="middle" font-weight="bold">Kompressori</text>

  <!-- paisuntaventtiili -->
  <path d="M475,850 h50 l-20,25 l20,25 h-50 l20,-25 z" fill="black"/>
  <text x="500" y="840" font-size="20" text-anchor="middle" font-weight="bold">Paisuntaventtiili</text>

  <!-- nesteen virtaussuunta -->
  <path d="M620,70 h160 v80 h12 l-15,15 l-15,-15 h12 v-74 h-154"/>

  <path id="text" d="M620,50 h150 q40,0 40,40 v100"  fill="none"/>

  <text font-size="20" font-weight="bold">
    <textPath xlink:href="#text">
      Kylmäaineen virtaussuunta
    </textPath>
  </text>


</svg>
