<?xml version="1.0" encoding="UTF-8" standalone="no"?>
<svg
   xmlns:dc="http://purl.org/dc/elements/1.1/"
   xmlns:cc="http://creativecommons.org/ns#"
   xmlns:rdf="http://www.w3.org/1999/02/22-rdf-syntax-ns#"
   xmlns:svg="http://www.w3.org/2000/svg"
   xmlns="http://www.w3.org/2000/svg"
   xmlns:sodipodi="http://sodipodi.sourceforge.net/DTD/sodipodi-0.dtd"
   xmlns:inkscape="http://www.inkscape.org/namespaces/inkscape"
   version="1.1"
   viewBox="0 0 690.98639 383.75052"
   stroke-miterlimit="10"
   id="svg3668"
   inkscape:version="0.91 r13725"
   sodipodi:docname="pvcurve.svg"
   width="690.98639"
   height="383.75052"
   style="fill:none;stroke:none;stroke-linecap:square;stroke-miterlimit:10">
  <metadata
     id="metadata3833">
    <rdf:RDF>
      <cc:Work
         rdf:about="">
        <dc:format>image/svg+xml</dc:format>
        <dc:type
           rdf:resource="http://purl.org/dc/dcmitype/StillImage" />
        <dc:title></dc:title>
      </cc:Work>
    </rdf:RDF>
  </metadata>
  <defs
     id="defs3831">
    <clipPath
       clipPathUnits="userSpaceOnUse"
       id="clipPath3853">
      <rect
         style="fill:#646464;fill-opacity:1"
         id="rect3855"
         width="690.98639"
         height="383.75052"
         x="111.82914"
         y="87.871063" />
    </clipPath>
  </defs>
  <sodipodi:namedview
     pagecolor="#ffffff"
     bordercolor="#666666"
     borderopacity="1"
     objecttolerance="10"
     gridtolerance="10"
     guidetolerance="10"
     inkscape:pageopacity="0"
     inkscape:pageshadow="2"
     inkscape:window-width="1920"
     inkscape:window-height="1053"
     id="namedview3829"
     showgrid="false"
     fit-margin-top="0"
     fit-margin-left="0"
     fit-margin-right="0"
     fit-margin-bottom="0"
     inkscape:zoom="0.84951023"
     inkscape:cx="441.49384"
     inkscape:cy="226.30784"
     inkscape:window-x="0"
     inkscape:window-y="0"
     inkscape:window-maximized="1"
     inkscape:current-layer="svg3668" />
  <clipPath
     id="p.0">
    <path
       d="M 0,0 960,0 960,720 0,720 0,0 Z"
       id="path3671"
       inkscape:connector-curvature="0"
       style="clip-rule:nonzero" />
  </clipPath>
  <g
     clip-path="url(#clipPath3853)"
     id="g3673"
     transform="translate(-111.82914,-87.871063)">
    <path
       d="m 0,0 960,0 0,720 -960,0 z"
       id="path3675"
       inkscape:connector-curvature="0"
       style="fill:#000000;fill-opacity:0;fill-rule:evenodd" />
    <path
       d="m 224.41208,106.40682 452.50394,0 0,303.40158 -452.50394,0 z"
       id="path3677"
       inkscape:connector-curvature="0"
       style="fill:#000000;fill-opacity:0;fill-rule:evenodd" />
    <path
       d="m 224.41208,106.40682 452.50394,0 0,303.40158 -452.50394,0 z"
       id="path3679"
       inkscape:connector-curvature="0"
       style="fill-rule:evenodd;stroke:#000000;stroke-width:1;stroke-linecap:butt;stroke-linejoin:round" />
    <path
       d="M 225.38582,408.74805 C 276.7677,369.41428 463.92127,172.74541 533.6772,172.74541 c 69.75586,0 91.87006,196.66887 110.24408,236.00264"
       id="path3681"
       inkscape:connector-curvature="0"
       style="fill:#000000;fill-opacity:0;fill-rule:evenodd" />
    <path
       d="M 225.38582,408.74805 C 276.7677,369.41428 463.92127,172.74541 533.6772,172.74541 c 69.75586,0 91.87006,196.66887 110.24408,236.00264"
       id="path3683"
       inkscape:connector-curvature="0"
       style="fill-rule:evenodd;stroke:#ff0000;stroke-width:1;stroke-linecap:butt;stroke-linejoin:round" />
    <path
       d="m 225.38583,408.83234 c 50.56912,-48.94312 232.84558,-293.8215 303.4147,-293.65878 70.56909,0.16273 100,245.5293 120,294.63516"
       id="path3685"
       inkscape:connector-curvature="0"
       style="fill:#000000;fill-opacity:0;fill-rule:evenodd" />
    <path
       d="m 225.38583,408.83234 c 50.56912,-48.94312 232.84558,-293.8215 303.4147,-293.65878 70.56909,0.16273 100,245.5293 120,294.63516"
       id="path3687"
       inkscape:connector-curvature="0"
       style="fill-rule:evenodd;stroke:#000000;stroke-width:1;stroke-linecap:butt;stroke-linejoin:round" />
    <path
       d="m 225.38583,408.7584 c 51.259,-28.60223 239.9119,-171.48213 307.55405,-171.61343 67.64215,-0.13132 81.91577,142.35468 98.29895,170.82559"
       id="path3689"
       inkscape:connector-curvature="0"
       style="fill:#000000;fill-opacity:0;fill-rule:evenodd" />
    <path
       d="m 225.38583,408.7584 c 51.259,-28.60223 239.9119,-171.48213 307.55405,-171.61343 67.64215,-0.13132 81.91577,142.35468 98.29895,170.82559"
       id="path3691"
       inkscape:connector-curvature="0"
       style="fill-rule:evenodd;stroke:#00ff00;stroke-width:1;stroke-linecap:butt;stroke-linejoin:round" />
    <path
       d="m 225.38582,408.75143 c 52.71349,-19.4144 250.75389,-116.48633 316.28082,-116.48633 65.52692,0 64.06732,97.07193 76.8808,116.48633"
       id="path3693"
       inkscape:connector-curvature="0"
       style="fill:#000000;fill-opacity:0;fill-rule:evenodd" />
    <path
       d="m 225.38582,408.75143 c 52.71349,-19.4144 250.75389,-116.48633 316.28082,-116.48633 65.52692,0 64.06732,97.07193 76.8808,116.48633"
       id="path3695"
       inkscape:connector-curvature="0"
       style="fill-rule:evenodd;stroke:#00ffff;stroke-width:1;stroke-linecap:butt;stroke-linejoin:round" />
    <path
       d="m 225.38583,408.96326 c 51.7352,-10.74854 246.99918,-64.63086 310.4113,-64.49115 63.41211,0.13968 58.38458,54.44113 70.06146,65.32935"
       id="path3697"
       inkscape:connector-curvature="0"
       style="fill:#000000;fill-opacity:0;fill-rule:evenodd" />
    <path
       d="m 225.38583,408.96326 c 51.7352,-10.74854 246.99918,-64.63086 310.4113,-64.49115 63.41211,0.13968 58.38458,54.44113 70.06146,65.32935"
       id="path3699"
       inkscape:connector-curvature="0"
       style="fill-rule:evenodd;stroke:#4a86e8;stroke-width:1;stroke-linecap:butt;stroke-linejoin:round" />
    <path
       d="m 386.27036,438.3701 128.78738,0 0,39.02362 -128.78738,0 z"
       id="path3701"
       inkscape:connector-curvature="0"
       style="fill:#000000;fill-opacity:0;fill-rule:evenodd" />
    <path
       d="m 395.8016,461.4932 1.59375,-0.21875 q 0.0781,1.53125 0.57812,2.10937 0.51563,0.5625 1.42188,0.5625 0.65625,0 1.14062,-0.29687 0.48438,-0.3125 0.65625,-0.82813 0.1875,-0.53125 0.1875,-1.6875 l 0,-9.20312 1.76563,0 0,9.10937 q 0,1.67188 -0.40625,2.59375 -0.40625,0.92188 -1.28125,1.40625 -0.875,0.48438 -2.0625,0.48438 -1.75,0 -2.6875,-1.01563 -0.9375,-1.01562 -0.90625,-3.01562 z m 16.34375,2.60937 q -0.92188,0.76563 -1.76563,1.09375 -0.82812,0.3125 -1.79687,0.3125 -1.59375,0 -2.45313,-0.78125 -0.85937,-0.78125 -0.85937,-1.98437 0,-0.71875 0.32812,-1.29688 0.32813,-0.59375 0.84375,-0.9375 0.53125,-0.35937 1.1875,-0.54687 0.46875,-0.125 1.45313,-0.25 1.98437,-0.23438 2.92187,-0.5625 0.0156,-0.34375 0.0156,-0.42188 0,-1 -0.46875,-1.42187 -0.625,-0.54688 -1.875,-0.54688 -1.15625,0 -1.70313,0.40625 -0.54687,0.40625 -0.8125,1.42188 l -1.60937,-0.21875 q 0.21875,-1.01563 0.71875,-1.64063 0.5,-0.64062 1.45312,-0.98437 0.95313,-0.34375 2.1875,-0.34375 1.25,0 2.01563,0.29687 0.78125,0.28125 1.14062,0.73438 0.375,0.4375 0.51563,1.10937 0.0781,0.42188 0.0781,1.51563 l 0,2.1875 q 0,2.28125 0.10938,2.89062 0.10937,0.59375 0.40625,1.15625 l -1.70313,0 q -0.26562,-0.51562 -0.32812,-1.1875 z m -0.14063,-3.67187 q -0.89062,0.375 -2.67187,0.625 -1.01563,0.14062 -1.4375,0.32812 -0.42188,0.1875 -0.65625,0.53125 -0.21875,0.34375 -0.21875,0.78125 0,0.65625 0.5,1.09375 0.5,0.4375 1.45312,0.4375 0.9375,0 1.67188,-0.40625 0.75,-0.42187 1.09375,-1.14062 0.26562,-0.5625 0.26562,-1.64063 l 0,-0.60937 z m -4.84375,-6.70313 0,-1.875 1.70313,0 0,1.875 -1.70313,0 z m 3.39063,0 0,-1.875 1.71875,0 0,1.875 -1.71875,0 z m 5.65695,11.5625 0,-9.67187 1.46875,0 0,1.375 q 1.0625,-1.59375 3.07813,-1.59375 0.875,0 1.60937,0.3125 0.73438,0.3125 1.09375,0.82812 0.375,0.5 0.51563,1.20313 0.0937,0.45312 0.0937,1.59375 l 0,5.95312 -1.64063,0 0,-5.89062 q 0,-1 -0.20312,-1.48438 -0.1875,-0.5 -0.67188,-0.79687 -0.48437,-0.29688 -1.14062,-0.29688 -1.04688,0 -1.8125,0.67188 -0.75,0.65625 -0.75,2.51562 l 0,5.28125 -1.64063,0 z m 10.37573,0 0,-9.67187 1.46875,0 0,1.375 q 1.0625,-1.59375 3.07813,-1.59375 0.875,0 1.60937,0.3125 0.73438,0.3125 1.09375,0.82812 0.375,0.5 0.51563,1.20313 0.0937,0.45312 0.0937,1.59375 l 0,5.95312 -1.64063,0 0,-5.89062 q 0,-1 -0.20312,-1.48438 -0.1875,-0.5 -0.67188,-0.79687 -0.48437,-0.29688 -1.14062,-0.29688 -1.04688,0 -1.8125,0.67188 -0.75,0.65625 -0.75,2.51562 l 0,5.28125 -1.64063,0 z m 10.37571,-11.46875 0,-1.89062 1.64062,0 0,1.89062 -1.64062,0 z m 0,11.46875 0,-9.67187 1.64062,0 0,9.67187 -1.64062,0 z m 7.72296,-1.46875 0.23437,1.45313 q -0.6875,0.14062 -1.23437,0.14062 -0.89063,0 -1.39063,-0.28125 -0.48437,-0.28125 -0.6875,-0.73437 -0.20312,-0.46875 -0.20312,-1.9375 l 0,-5.57813 -1.20313,0 0,-1.26562 1.20313,0 0,-2.39063 1.625,-0.98437 0,3.375 1.65625,0 0,1.26562 -1.65625,0 0,5.67188 q 0,0.6875 0.0781,0.89062 0.0937,0.20313 0.28125,0.32813 0.20313,0.10937 0.57813,0.10937 0.26562,0 0.71875,-0.0625 z m 8.23016,-1.64062 1.6875,0.20312 q -0.40625,1.48438 -1.48437,2.3125 -1.07813,0.8125 -2.76563,0.8125 -2.125,0 -3.375,-1.29687 -1.23437,-1.3125 -1.23437,-3.67188 0,-2.45312 1.25,-3.79687 1.26562,-1.34375 3.26562,-1.34375 1.9375,0 3.15625,1.32812 1.23438,1.3125 1.23438,3.70313 0,0.15625 0,0.4375 l -7.21875,0 q 0.0937,1.59375 0.90625,2.45312 0.8125,0.84375 2.01562,0.84375 0.90625,0 1.54688,-0.46875 0.64062,-0.48437 1.01562,-1.51562 z m -5.39062,-2.65625 5.40625,0 q -0.10938,-1.21875 -0.625,-1.82813 -0.78125,-0.95312 -2.03125,-0.95312 -1.125,0 -1.90625,0.76562 -0.76563,0.75 -0.84375,2.01563 z m 17.44964,9.6875 q -1.35937,-1.70313 -2.29687,-4 -0.9375,-2.29688 -0.9375,-4.76563 0,-2.15625 0.70312,-4.14062 0.82813,-2.3125 2.53125,-4.59375 l 1.17188,0 q -1.09375,1.89062 -1.45313,2.70312 -0.54687,1.25 -0.875,2.625 -0.39062,1.70313 -0.39062,3.42188 0,4.375 2.71875,8.75 l -1.17188,0 z m 7.1033,-3.92188 -5.17187,-13.35937 1.92187,0 3.46875,9.70312 q 0.42188,1.17188 0.70313,2.1875 0.3125,-1.09375 0.71875,-2.1875 l 3.60937,-9.70312 1.79688,0 -5.23438,13.35937 -1.8125,0 z m 9.50608,3.92188 -1.1875,0 q 2.73437,-4.375 2.73437,-8.75 0,-1.71875 -0.39062,-3.39063 -0.3125,-1.375 -0.875,-2.625 -0.35938,-0.82812 -1.46875,-2.73437 l 1.1875,0 q 1.70312,2.28125 2.53125,4.59375 0.6875,1.98437 0.6875,4.14062 0,2.46875 -0.9375,4.76563 -0.9375,2.29687 -2.28125,4 z"
       id="path3703"
       inkscape:connector-curvature="0"
       style="fill:#000000;fill-rule:nonzero" />
    <path
       d="m 130.53806,311.76117 0,-98.55119 39.02362,0 0,98.55119 z"
       id="path3705"
       inkscape:connector-curvature="0"
       style="fill:#000000;fill-opacity:0;fill-rule:evenodd" />
    <path
       d="m 157.45805,297.91742 -11.78125,0 0,4.40625 -1.57813,0 0,-10.57813 1.57813,0 0,4.40625 11.78125,0 0,1.76563 z m -3.10938,-12.34259 0.20313,-1.6875 q 1.48437,0.40625 2.3125,1.48438 0.8125,1.07812 0.8125,2.76562 0,2.125 -1.29688,3.375 -1.3125,1.23438 -3.67187,1.23438 -2.45313,0 -3.79688,-1.25 -1.34375,-1.26563 -1.34375,-3.26563 0,-1.9375 1.32813,-3.15625 1.3125,-1.23437 3.70312,-1.23437 0.15625,0 0.4375,0 l 0,7.21875 q 1.59375,-0.0937 2.45313,-0.90625 0.84375,-0.8125 0.84375,-2.01563 0,-0.90625 -0.46875,-1.54687 -0.48438,-0.64063 -1.51563,-1.01563 z m -2.65625,5.39063 0,-5.40625 q -1.21875,0.10937 -1.82812,0.625 -0.95313,0.78125 -0.95313,2.03125 0,1.125 0.76563,1.90625 0.75,0.76562 2.01562,0.84375 z m 5.76563,-9.14136 -13.35938,0 0,-1.64063 4.79688,0 q -1.32813,-1.14062 -1.32813,-2.89062 0,-1.07813 0.42188,-1.85938 0.42187,-0.79687 1.17187,-1.14062 0.75,-0.34375 2.17188,-0.34375 l 6.125,0 0,1.64062 -6.125,0 q -1.23438,0 -1.79688,0.53125 -0.5625,0.53125 -0.5625,1.51563 0,0.71875 0.39063,1.35937 0.375,0.64063 1.01562,0.92188 0.64063,0.26562 1.78125,0.26562 l 5.29688,0 0,1.64063 z m -4.84375,-9.76633 q -2.6875,0 -3.96875,-1.48437 -1.07813,-1.25 -1.07813,-3.04688 0,-2 1.3125,-3.26562 1.29688,-1.26563 3.60938,-1.26563 1.85937,0 2.9375,0.5625 1.0625,0.5625 1.65625,1.64063 0.59375,1.0625 0.59375,2.32812 0,2.03125 -1.29688,3.28125 -1.3125,1.25 -3.76562,1.25 z m 0,-1.6875 q 1.85937,0 2.79687,-0.79687 0.92188,-0.8125 0.92188,-2.04688 0,-1.21875 -0.92188,-2.03125 -0.9375,-0.8125 -2.84375,-0.8125 -1.79687,0 -2.71875,0.8125 -0.92187,0.8125 -0.92187,2.03125 0,1.23438 0.92187,2.04688 0.90625,0.79687 2.76563,0.79687 z m 8.76562,-17.60591 q -1.70312,1.35938 -4,2.29688 -2.29687,0.9375 -4.76562,0.9375 -2.15625,0 -4.14063,-0.70313 -2.3125,-0.82812 -4.59375,-2.53125 l 0,-1.17187 q 1.89063,1.09375 2.70313,1.45312 1.25,0.54688 2.625,0.875 1.70312,0.39063 3.42187,0.39063 4.375,0 8.75,-2.71875 l 0,1.17187 z m -3.92187,-5.61893 -13.35938,3.53125 0,-1.8125 8.76563,-2.03125 q 1.375,-0.32812 2.71875,-0.5625 -2.14063,-0.5 -2.46875,-0.59375 l -9.01563,-2.54687 0,-2.125 6.76563,-1.92188 q 2.51562,-0.71875 4.71875,-1.03125 -1.26563,-0.26562 -2.89063,-0.67187 l -8.59375,-2.09375 0,-1.78125 13.35938,3.67187 0,1.70313 -10.17188,2.8125 q -1.28125,0.35937 -1.5625,0.42187 0.90625,0.20313 1.5625,0.39063 l 10.17188,2.82812 0,1.8125 z m 3.92187,-16.15553 0,1.1875 q -4.375,-2.73437 -8.75,-2.73437 -1.71875,0 -3.39062,0.39062 -1.375,0.3125 -2.625,0.875 -0.82813,0.35938 -2.73438,1.46875 l 0,-1.1875 q 2.28125,-1.70312 4.59375,-2.53125 1.98438,-0.6875 4.14063,-0.6875 2.46875,0 4.76562,0.9375 2.29688,0.9375 4,2.28125 z"
       id="path3707"
       inkscape:connector-curvature="0"
       style="fill:#000000;fill-rule:nonzero" />
    <path
       d="m 224.41208,363.44882 452.50394,-2.92914"
       id="path3709"
       inkscape:connector-curvature="0"
       style="fill:#000000;fill-opacity:0;fill-rule:evenodd" />
    <path
       d="m 224.41208,363.44882 452.50394,-2.92914"
       id="path3711"
       inkscape:connector-curvature="0"
       style="fill-rule:evenodd;stroke:#999999;stroke-width:1;stroke-linecap:butt;stroke-linejoin:round" />
    <path
       d="m 224.41208,315.88452 452.50394,-2.92914"
       id="path3713"
       inkscape:connector-curvature="0"
       style="fill:#000000;fill-opacity:0;fill-rule:evenodd" />
    <path
       d="m 224.41208,315.88452 452.50394,-2.92914"
       id="path3715"
       inkscape:connector-curvature="0"
       style="fill-rule:evenodd;stroke:#999999;stroke-width:1;stroke-linecap:butt;stroke-linejoin:round" />
    <path
       d="m 224.41208,269.1824 452.50394,-2.92911"
       id="path3717"
       inkscape:connector-curvature="0"
       style="fill:#000000;fill-opacity:0;fill-rule:evenodd" />
    <path
       d="m 224.41208,269.1824 452.50394,-2.92911"
       id="path3719"
       inkscape:connector-curvature="0"
       style="fill-rule:evenodd;stroke:#999999;stroke-width:1;stroke-linecap:butt;stroke-linejoin:round" />
    <path
       d="m 224.41208,222.91208 452.50394,-2.92914"
       id="path3721"
       inkscape:connector-curvature="0"
       style="fill:#000000;fill-opacity:0;fill-rule:evenodd" />
    <path
       d="m 224.41208,222.91208 452.50394,-2.92914"
       id="path3723"
       inkscape:connector-curvature="0"
       style="fill-rule:evenodd;stroke:#999999;stroke-width:1;stroke-linecap:butt;stroke-linejoin:round" />
    <path
       d="m 224.41208,176.64305 452.50394,-2.92914"
       id="path3725"
       inkscape:connector-curvature="0"
       style="fill:#000000;fill-opacity:0;fill-rule:evenodd" />
    <path
       d="m 224.41208,176.64305 452.50394,-2.92914"
       id="path3727"
       inkscape:connector-curvature="0"
       style="fill-rule:evenodd;stroke:#999999;stroke-width:1;stroke-linecap:butt;stroke-linejoin:round" />
    <path
       d="m 224.41208,130.3727 452.50394,-2.92912"
       id="path3729"
       inkscape:connector-curvature="0"
       style="fill:#000000;fill-opacity:0;fill-rule:evenodd" />
    <path
       d="m 224.41208,130.3727 452.50394,-2.92912"
       id="path3731"
       inkscape:connector-curvature="0"
       style="fill-rule:evenodd;stroke:#999999;stroke-width:1;stroke-linecap:butt;stroke-linejoin:round" />
    <path
       d="m 328.65878,409.8084 0,-8.78742"
       id="path3733"
       inkscape:connector-curvature="0"
       style="fill:#000000;fill-opacity:0;fill-rule:evenodd" />
    <path
       d="m 328.65878,409.8084 0,-8.78742"
       id="path3735"
       inkscape:connector-curvature="0"
       style="fill-rule:evenodd;stroke:#000000;stroke-width:1;stroke-linecap:butt;stroke-linejoin:round" />
    <path
       d="m 432.40683,409.8084 0,-8.78742"
       id="path3737"
       inkscape:connector-curvature="0"
       style="fill:#000000;fill-opacity:0;fill-rule:evenodd" />
    <path
       d="m 432.40683,409.8084 0,-8.78742"
       id="path3739"
       inkscape:connector-curvature="0"
       style="fill-rule:evenodd;stroke:#000000;stroke-width:1;stroke-linecap:butt;stroke-linejoin:round" />
    <path
       d="m 536.15485,409.8084 0,-8.78742"
       id="path3741"
       inkscape:connector-curvature="0"
       style="fill:#000000;fill-opacity:0;fill-rule:evenodd" />
    <path
       d="m 536.15485,409.8084 0,-8.78742"
       id="path3743"
       inkscape:connector-curvature="0"
       style="fill-rule:evenodd;stroke:#000000;stroke-width:1;stroke-linecap:butt;stroke-linejoin:round" />
    <path
       d="m 639.9029,409.8084 0,-8.78742"
       id="path3745"
       inkscape:connector-curvature="0"
       style="fill:#000000;fill-opacity:0;fill-rule:evenodd" />
    <path
       d="m 639.9029,409.8084 0,-8.78742"
       id="path3747"
       inkscape:connector-curvature="0"
       style="fill-rule:evenodd;stroke:#000000;stroke-width:1;stroke-linecap:butt;stroke-linejoin:round" />
    <path
       d="m 255.95013,132.40683 77.29132,0 0,22.83464 -77.29132,0 z"
       id="path3749"
       inkscape:connector-curvature="0"
       style="fill:#000000;fill-opacity:0;fill-rule:evenodd" />
    <path
       d="m 269.41888,148.34415 -1.04688,0 0,-6.71875 q -0.39062,0.35938 -1.01562,0.73438 -0.60938,0.35937 -1.09375,0.53125 l 0,-1.01563 q 0.875,-0.42187 1.53125,-1 0.67187,-0.59375 0.95312,-1.15625 l 0.67188,0 0,8.625 z m 2.70508,-4.23437 q 0,-1.53125 0.3125,-2.45313 0.3125,-0.9375 0.92187,-1.4375 0.625,-0.5 1.5625,-0.5 0.6875,0 1.20313,0.28125 0.53125,0.28125 0.875,0.8125 0.34375,0.51563 0.53125,1.26563 0.1875,0.75 0.1875,2.03125 0,1.51562 -0.3125,2.4375 -0.29688,0.92187 -0.92188,1.4375 -0.60937,0.5 -1.5625,0.5 -1.23437,0 -1.95312,-0.89063 -0.84375,-1.0625 -0.84375,-3.48437 z m 1.07812,0 q 0,2.10937 0.5,2.8125 0.5,0.70312 1.21875,0.70312 0.73438,0 1.21875,-0.70312 0.5,-0.70313 0.5,-2.8125 0,-2.125 -0.5,-2.8125 -0.48437,-0.70313 -1.23437,-0.70313 -0.71875,0 -1.15625,0.60938 -0.54688,0.78125 -0.54688,2.90625 z m 5.59571,0 q 0,-1.53125 0.3125,-2.45313 0.3125,-0.9375 0.92187,-1.4375 0.625,-0.5 1.5625,-0.5 0.6875,0 1.20313,0.28125 0.53125,0.28125 0.875,0.8125 0.34375,0.51563 0.53125,1.26563 0.1875,0.75 0.1875,2.03125 0,1.51562 -0.3125,2.4375 -0.29688,0.92187 -0.92188,1.4375 -0.60937,0.5 -1.5625,0.5 -1.23437,0 -1.95312,-0.89063 -0.84375,-1.0625 -0.84375,-3.48437 z m 1.07812,0 q 0,2.10937 0.5,2.8125 0.5,0.70312 1.21875,0.70312 0.73438,0 1.21875,-0.70312 0.5,-0.70313 0.5,-2.8125 0,-2.125 -0.5,-2.8125 -0.48437,-0.70313 -1.23437,-0.70313 -0.71875,0 -1.15625,0.60938 -0.54688,0.78125 -0.54688,2.90625 z m 5.5957,0 q 0,-1.53125 0.3125,-2.45313 0.3125,-0.9375 0.92188,-1.4375 0.625,-0.5 1.5625,-0.5 0.6875,0 1.20312,0.28125 0.53125,0.28125 0.875,0.8125 0.34375,0.51563 0.53125,1.26563 0.1875,0.75 0.1875,2.03125 0,1.51562 -0.3125,2.4375 -0.29687,0.92187 -0.92187,1.4375 -0.60938,0.5 -1.5625,0.5 -1.23438,0 -1.95313,-0.89063 -0.84375,-1.0625 -0.84375,-3.48437 z m 1.07813,0 q 0,2.10937 0.5,2.8125 0.5,0.70312 1.21875,0.70312 0.73437,0 1.21875,-0.70312 0.5,-0.70313 0.5,-2.8125 0,-2.125 -0.5,-2.8125 -0.48438,-0.70313 -1.23438,-0.70313 -0.71875,0 -1.15625,0.60938 -0.54687,0.78125 -0.54687,2.90625 z m 7.51758,4.23437 -2.28125,-8.59375 1.17187,0 1.3125,5.64063 q 0.20313,0.875 0.35938,1.75 0.32812,-1.375 0.39062,-1.59375 l 1.625,-5.79688 1.375,0 1.23438,4.34375 q 0.45312,1.625 0.67187,3.04688 0.15625,-0.8125 0.42188,-1.875 l 1.34375,-5.51563 1.14062,0 -2.34375,8.59375 -1.10937,0 -1.79688,-6.54687 q -0.23437,-0.8125 -0.28125,-1 -0.125,0.57812 -0.25,1 l -1.8125,6.54687 -1.17187,0 z m 8.90429,0.14063 2.48438,-8.875 0.84375,0 -2.48438,8.875 -0.84375,0 z m 4.13086,-0.14063 0,-6.21875 0.9375,0 0,0.875 q 0.29688,-0.46875 0.78125,-0.73437 0.48438,-0.28125 1.10938,-0.28125 0.6875,0 1.125,0.28125 0.45312,0.28125 0.625,0.79687 0.75,-1.07812 1.92187,-1.07812 0.9375,0 1.42188,0.51562 0.5,0.5 0.5,1.57813 l 0,4.26562 -1.04688,0 0,-3.92187 q 0,-0.625 -0.10937,-0.90625 -0.0937,-0.28125 -0.35938,-0.45313 -0.26562,-0.17187 -0.64062,-0.17187 -0.65625,0 -1.09375,0.4375 -0.42188,0.4375 -0.42188,1.40625 l 0,3.60937 -1.0625,0 0,-4.04687 q 0,-0.70313 -0.26562,-1.04688 -0.25,-0.35937 -0.82813,-0.35937 -0.45312,0 -0.82812,0.23437 -0.375,0.23438 -0.54688,0.6875 -0.17187,0.45313 -0.17187,1.29688 l 0,3.23437 -1.04688,0 z m 15.2461,-1.01562 0,1.01562 -5.6875,0 q 0,-0.375 0.125,-0.73437 0.21875,-0.57813 0.6875,-1.14063 0.48437,-0.5625 1.39062,-1.29687 1.40625,-1.15625 1.89063,-1.82813 0.5,-0.67187 0.5,-1.26562 0,-0.625 -0.45313,-1.04688 -0.45312,-0.4375 -1.17187,-0.4375 -0.76563,0 -1.21875,0.45313 -0.45313,0.45312 -0.46875,1.26562 l -1.07813,-0.10937 q 0.10938,-1.21875 0.82813,-1.84375 0.73437,-0.64063 1.96875,-0.64063 1.23437,0 1.95312,0.6875 0.71875,0.6875 0.71875,1.70313 0,0.51562 -0.21875,1.01562 -0.20312,0.48438 -0.70312,1.04688 -0.48438,0.54687 -1.60938,1.5 -0.95312,0.79687 -1.23437,1.09375 -0.26563,0.28125 -0.4375,0.5625 l 4.21875,0 z"
       id="path3751"
       inkscape:connector-curvature="0"
       style="fill:#000000;fill-rule:nonzero" />
    <path
       d="m 255.95013,155.2336 77.29132,0 0,22.83464 -77.29132,0 z"
       id="path3753"
       inkscape:connector-curvature="0"
       style="fill:#000000;fill-opacity:0;fill-rule:evenodd" />
    <path
       d="m 267.07513,166.51466 q -0.65625,-0.25 -0.98438,-0.6875 -0.3125,-0.45313 -0.3125,-1.0625 0,-0.9375 0.67188,-1.57813 0.6875,-0.64062 1.79687,-0.64062 1.125,0 1.8125,0.65625 0.6875,0.65625 0.6875,1.59375 0,0.59375 -0.3125,1.03125 -0.3125,0.4375 -0.95312,0.6875 0.79687,0.25 1.20312,0.82812 0.40625,0.57813 0.40625,1.375 0,1.09375 -0.78125,1.84375 -0.76562,0.75 -2.04687,0.75 -1.26563,0 -2.04688,-0.75 -0.78125,-0.75 -0.78125,-1.875 0,-0.84375 0.42188,-1.40625 0.4375,-0.5625 1.21875,-0.76562 z m -0.21875,-1.79688 q 0,0.60938 0.39062,1 0.40625,0.39063 1.03125,0.39063 0.60938,0 1,-0.375 0.39063,-0.39063 0.39063,-0.95313 0,-0.57812 -0.40625,-0.96875 -0.40625,-0.40625 -1,-0.40625 -0.60938,0 -1.01563,0.39063 -0.39062,0.39062 -0.39062,0.92187 z m -0.32813,3.96875 q 0,0.45313 0.20313,0.875 0.21875,0.42188 0.64062,0.65625 0.42188,0.23438 0.90625,0.23438 0.75,0 1.23438,-0.48438 0.5,-0.48437 0.5,-1.23437 0,-0.76563 -0.5,-1.26563 -0.5,-0.5 -1.26563,-0.5 -0.75,0 -1.23437,0.5 -0.48438,0.48438 -0.48438,1.21875 z m 5.59571,-1.75 q 0,-1.53125 0.3125,-2.45312 0.3125,-0.9375 0.92187,-1.4375 0.625,-0.5 1.5625,-0.5 0.6875,0 1.20313,0.28125 0.53125,0.28125 0.875,0.8125 0.34375,0.51562 0.53125,1.26562 0.1875,0.75 0.1875,2.03125 0,1.51563 -0.3125,2.4375 -0.29688,0.92188 -0.92188,1.4375 -0.60937,0.5 -1.5625,0.5 -1.23437,0 -1.95312,-0.89062 -0.84375,-1.0625 -0.84375,-3.48438 z m 1.07812,0 q 0,2.10938 0.5,2.8125 0.5,0.70313 1.21875,0.70313 0.73438,0 1.21875,-0.70313 0.5,-0.70312 0.5,-2.8125 0,-2.125 -0.5,-2.8125 -0.48437,-0.70312 -1.23437,-0.70312 -0.71875,0 -1.15625,0.60937 -0.54688,0.78125 -0.54688,2.90625 z m 5.59571,0 q 0,-1.53125 0.3125,-2.45312 0.3125,-0.9375 0.92187,-1.4375 0.625,-0.5 1.5625,-0.5 0.6875,0 1.20313,0.28125 0.53125,0.28125 0.875,0.8125 0.34375,0.51562 0.53125,1.26562 0.1875,0.75 0.1875,2.03125 0,1.51563 -0.3125,2.4375 -0.29688,0.92188 -0.92188,1.4375 -0.60937,0.5 -1.5625,0.5 -1.23437,0 -1.95312,-0.89062 -0.84375,-1.0625 -0.84375,-3.48438 z m 1.07812,0 q 0,2.10938 0.5,2.8125 0.5,0.70313 1.21875,0.70313 0.73438,0 1.21875,-0.70313 0.5,-0.70312 0.5,-2.8125 0,-2.125 -0.5,-2.8125 -0.48437,-0.70312 -1.23437,-0.70312 -0.71875,0 -1.15625,0.60937 -0.54688,0.78125 -0.54688,2.90625 z m 7.51758,4.23438 -2.28125,-8.59375 1.17187,0 1.3125,5.64062 q 0.20313,0.875 0.35938,1.75 0.32812,-1.375 0.39062,-1.59375 l 1.625,-5.79687 1.375,0 1.23438,4.34375 q 0.45312,1.625 0.67187,3.04687 0.15625,-0.8125 0.42188,-1.875 l 1.34375,-5.51562 1.14062,0 -2.34375,8.59375 -1.10937,0 -1.79688,-6.54688 q -0.23437,-0.8125 -0.28125,-1 -0.125,0.57813 -0.25,1 l -1.8125,6.54688 -1.17187,0 z m 8.9043,0.14062 2.48437,-8.875 0.84375,0 -2.48437,8.875 -0.84375,0 z m 4.13086,-0.14062 0,-6.21875 0.9375,0 0,0.875 q 0.29687,-0.46875 0.78125,-0.73438 0.48437,-0.28125 1.10937,-0.28125 0.6875,0 1.125,0.28125 0.45313,0.28125 0.625,0.79688 0.75,-1.07813 1.92188,-1.07813 0.9375,0 1.42187,0.51563 0.5,0.5 0.5,1.57812 l 0,4.26563 -1.04687,0 0,-3.92188 q 0,-0.625 -0.10938,-0.90625 -0.0937,-0.28125 -0.35937,-0.45312 -0.26563,-0.17188 -0.64063,-0.17188 -0.65625,0 -1.09375,0.4375 -0.42187,0.4375 -0.42187,1.40625 l 0,3.60938 -1.0625,0 0,-4.04688 q 0,-0.70312 -0.26563,-1.04687 -0.25,-0.35938 -0.82812,-0.35938 -0.45313,0 -0.82813,0.23438 -0.375,0.23437 -0.54687,0.6875 -0.17188,0.45312 -0.17188,1.29687 l 0,3.23438 -1.04687,0 z m 15.24609,-1.01563 0,1.01563 -5.6875,0 q 0,-0.375 0.125,-0.73438 0.21875,-0.57812 0.6875,-1.14062 0.48437,-0.5625 1.39062,-1.29688 1.40625,-1.15625 1.89063,-1.82812 0.5,-0.67188 0.5,-1.26563 0,-0.625 -0.45313,-1.04687 -0.45312,-0.4375 -1.17187,-0.4375 -0.76563,0 -1.21875,0.45312 -0.45313,0.45313 -0.46875,1.26563 l -1.07813,-0.10938 q 0.10938,-1.21875 0.82813,-1.84375 0.73437,-0.64062 1.96875,-0.64062 1.23437,0 1.95312,0.6875 0.71875,0.6875 0.71875,1.70312 0,0.51563 -0.21875,1.01563 -0.20312,0.48437 -0.70312,1.04687 -0.48438,0.54688 -1.60938,1.5 -0.95312,0.79688 -1.23437,1.09375 -0.26563,0.28125 -0.4375,0.5625 l 4.21875,0 z"
       id="path3755"
       inkscape:connector-curvature="0"
       style="fill:#000000;fill-rule:nonzero" />
    <path
       d="m 255.95013,178.06822 77.29132,0 0,22.83466 -77.29132,0 z"
       id="path3757"
       inkscape:connector-curvature="0"
       style="fill:#000000;fill-opacity:0;fill-rule:evenodd" />
    <path
       d="m 270.91888,187.52118 -1.04688,0.0781 q -0.14062,-0.625 -0.39062,-0.90625 -0.4375,-0.45312 -1.0625,-0.45312 -0.5,0 -0.89063,0.28125 -0.48437,0.375 -0.78125,1.07812 -0.28125,0.6875 -0.29687,1.96875 0.375,-0.57812 0.92187,-0.85937 0.5625,-0.28125 1.17188,-0.28125 1.04687,0 1.78125,0.78125 0.75,0.78125 0.75,2 0,0.8125 -0.35938,1.51562 -0.34375,0.6875 -0.95312,1.0625 -0.60938,0.35938 -1.375,0.35938 -1.32813,0 -2.15625,-0.96875 -0.82813,-0.96875 -0.82813,-3.1875 0,-2.5 0.92188,-3.625 0.79687,-0.98438 2.15625,-0.98438 1.01562,0 1.65625,0.57813 0.65625,0.5625 0.78125,1.5625 z m -4.29688,3.70312 q 0,0.54688 0.21875,1.04688 0.23438,0.48437 0.64063,0.75 0.42187,0.26562 0.89062,0.26562 0.65625,0 1.14063,-0.53125 0.48437,-0.54687 0.48437,-1.46875 0,-0.89062 -0.48437,-1.40625 -0.46875,-0.51562 -1.1875,-0.51562 -0.71875,0 -1.21875,0.51562 -0.48438,0.51563 -0.48438,1.34375 z m 5.50196,-1.45312 q 0,-1.53125 0.3125,-2.45313 0.3125,-0.9375 0.92187,-1.4375 0.625,-0.5 1.5625,-0.5 0.6875,0 1.20313,0.28125 0.53125,0.28125 0.875,0.8125 0.34375,0.51563 0.53125,1.26563 0.1875,0.75 0.1875,2.03125 0,1.51562 -0.3125,2.4375 -0.29688,0.92187 -0.92188,1.4375 -0.60937,0.5 -1.5625,0.5 -1.23437,0 -1.95312,-0.89063 -0.84375,-1.0625 -0.84375,-3.48437 z m 1.07812,0 q 0,2.10937 0.5,2.8125 0.5,0.70312 1.21875,0.70312 0.73438,0 1.21875,-0.70312 0.5,-0.70313 0.5,-2.8125 0,-2.125 -0.5,-2.8125 -0.48437,-0.70313 -1.23437,-0.70313 -0.71875,0 -1.15625,0.60938 -0.54688,0.78125 -0.54688,2.90625 z m 5.59571,0 q 0,-1.53125 0.3125,-2.45313 0.3125,-0.9375 0.92187,-1.4375 0.625,-0.5 1.5625,-0.5 0.6875,0 1.20313,0.28125 0.53125,0.28125 0.875,0.8125 0.34375,0.51563 0.53125,1.26563 0.1875,0.75 0.1875,2.03125 0,1.51562 -0.3125,2.4375 -0.29688,0.92187 -0.92188,1.4375 -0.60937,0.5 -1.5625,0.5 -1.23437,0 -1.95312,-0.89063 -0.84375,-1.0625 -0.84375,-3.48437 z m 1.07812,0 q 0,2.10937 0.5,2.8125 0.5,0.70312 1.21875,0.70312 0.73438,0 1.21875,-0.70312 0.5,-0.70313 0.5,-2.8125 0,-2.125 -0.5,-2.8125 -0.48437,-0.70313 -1.23437,-0.70313 -0.71875,0 -1.15625,0.60938 -0.54688,0.78125 -0.54688,2.90625 z m 7.51758,4.23437 -2.28125,-8.59375 1.17187,0 1.3125,5.64063 q 0.20313,0.875 0.35938,1.75 0.32812,-1.375 0.39062,-1.59375 l 1.625,-5.79688 1.375,0 1.23438,4.34375 q 0.45312,1.625 0.67187,3.04688 0.15625,-0.8125 0.42188,-1.875 l 1.34375,-5.51563 1.14062,0 -2.34375,8.59375 -1.10937,0 -1.79688,-6.54687 q -0.23437,-0.8125 -0.28125,-1 -0.125,0.57812 -0.25,1 l -1.8125,6.54687 -1.17187,0 z m 8.9043,0.14063 2.48437,-8.875 0.84375,0 -2.48437,8.875 -0.84375,0 z m 4.13086,-0.14063 0,-6.21875 0.9375,0 0,0.875 q 0.29687,-0.46875 0.78125,-0.73437 0.48437,-0.28125 1.10937,-0.28125 0.6875,0 1.125,0.28125 0.45313,0.28125 0.625,0.79687 0.75,-1.07812 1.92188,-1.07812 0.9375,0 1.42187,0.51562 0.5,0.5 0.5,1.57813 l 0,4.26562 -1.04687,0 0,-3.92187 q 0,-0.625 -0.10938,-0.90625 -0.0937,-0.28125 -0.35937,-0.45313 -0.26563,-0.17187 -0.64063,-0.17187 -0.65625,0 -1.09375,0.4375 -0.42187,0.4375 -0.42187,1.40625 l 0,3.60937 -1.0625,0 0,-4.04687 q 0,-0.70313 -0.26563,-1.04688 -0.25,-0.35937 -0.82812,-0.35937 -0.45313,0 -0.82813,0.23437 -0.375,0.23438 -0.54687,0.6875 -0.17188,0.45313 -0.17188,1.29688 l 0,3.23437 -1.04687,0 z m 15.24609,-1.01562 0,1.01562 -5.6875,0 q 0,-0.375 0.125,-0.73437 0.21875,-0.57813 0.6875,-1.14063 0.48437,-0.5625 1.39062,-1.29687 1.40625,-1.15625 1.89063,-1.82813 0.5,-0.67187 0.5,-1.26562 0,-0.625 -0.45313,-1.04688 -0.45312,-0.4375 -1.17187,-0.4375 -0.76563,0 -1.21875,0.45313 -0.45313,0.45312 -0.46875,1.26562 l -1.07813,-0.10937 q 0.10938,-1.21875 0.82813,-1.84375 0.73437,-0.64063 1.96875,-0.64063 1.23437,0 1.95312,0.6875 0.71875,0.6875 0.71875,1.70313 0,0.51562 -0.21875,1.01562 -0.20312,0.48438 -0.70312,1.04688 -0.48438,0.54687 -1.60938,1.5 -0.95312,0.79687 -1.23437,1.09375 -0.26563,0.28125 -0.4375,0.5625 l 4.21875,0 z"
       id="path3759"
       inkscape:connector-curvature="0"
       style="fill:#000000;fill-rule:nonzero" />
    <path
       d="m 255.95013,200.9027 77.29132,0 0,22.83464 -77.29132,0 z"
       id="path3761"
       inkscape:connector-curvature="0"
       style="fill:#000000;fill-opacity:0;fill-rule:evenodd" />
    <path
       d="m 268.82513,216.84001 0,-2.0625 -3.71875,0 0,-0.96875 3.92187,-5.5625 0.85938,0 0,5.5625 1.15625,0 0,0.96875 -1.15625,0 0,2.0625 -1.0625,0 z m 0,-3.03125 0,-3.85938 -2.6875,3.85938 2.6875,0 z m 3.29883,-1.20313 q 0,-1.53125 0.3125,-2.45312 0.3125,-0.9375 0.92187,-1.4375 0.625,-0.5 1.5625,-0.5 0.6875,0 1.20313,0.28125 0.53125,0.28125 0.875,0.8125 0.34375,0.51562 0.53125,1.26562 0.1875,0.75 0.1875,2.03125 0,1.51563 -0.3125,2.4375 -0.29688,0.92188 -0.92188,1.4375 -0.60937,0.5 -1.5625,0.5 -1.23437,0 -1.95312,-0.89062 -0.84375,-1.0625 -0.84375,-3.48438 z m 1.07812,0 q 0,2.10938 0.5,2.8125 0.5,0.70313 1.21875,0.70313 0.73438,0 1.21875,-0.70313 0.5,-0.70312 0.5,-2.8125 0,-2.125 -0.5,-2.8125 -0.48437,-0.70312 -1.23437,-0.70312 -0.71875,0 -1.15625,0.60937 -0.54688,0.78125 -0.54688,2.90625 z m 5.59571,0 q 0,-1.53125 0.3125,-2.45312 0.3125,-0.9375 0.92187,-1.4375 0.625,-0.5 1.5625,-0.5 0.6875,0 1.20313,0.28125 0.53125,0.28125 0.875,0.8125 0.34375,0.51562 0.53125,1.26562 0.1875,0.75 0.1875,2.03125 0,1.51563 -0.3125,2.4375 -0.29688,0.92188 -0.92188,1.4375 -0.60937,0.5 -1.5625,0.5 -1.23437,0 -1.95312,-0.89062 -0.84375,-1.0625 -0.84375,-3.48438 z m 1.07812,0 q 0,2.10938 0.5,2.8125 0.5,0.70313 1.21875,0.70313 0.73438,0 1.21875,-0.70313 0.5,-0.70312 0.5,-2.8125 0,-2.125 -0.5,-2.8125 -0.48437,-0.70312 -1.23437,-0.70312 -0.71875,0 -1.15625,0.60937 -0.54688,0.78125 -0.54688,2.90625 z m 7.51758,4.23438 -2.28125,-8.59375 1.17187,0 1.3125,5.64062 q 0.20313,0.875 0.35938,1.75 0.32812,-1.375 0.39062,-1.59375 l 1.625,-5.79687 1.375,0 1.23438,4.34375 q 0.45312,1.625 0.67187,3.04687 0.15625,-0.8125 0.42188,-1.875 l 1.34375,-5.51562 1.14062,0 -2.34375,8.59375 -1.10937,0 -1.79688,-6.54688 q -0.23437,-0.8125 -0.28125,-1 -0.125,0.57813 -0.25,1 l -1.8125,6.54688 -1.17187,0 z m 8.9043,0.14062 2.48437,-8.875 0.84375,0 -2.48437,8.875 -0.84375,0 z m 4.13086,-0.14062 0,-6.21875 0.9375,0 0,0.875 q 0.29687,-0.46875 0.78125,-0.73438 0.48437,-0.28125 1.10937,-0.28125 0.6875,0 1.125,0.28125 0.45313,0.28125 0.625,0.79688 0.75,-1.07813 1.92188,-1.07813 0.9375,0 1.42187,0.51563 0.5,0.5 0.5,1.57812 l 0,4.26563 -1.04687,0 0,-3.92188 q 0,-0.625 -0.10938,-0.90625 -0.0937,-0.28125 -0.35937,-0.45312 -0.26563,-0.17188 -0.64063,-0.17188 -0.65625,0 -1.09375,0.4375 -0.42187,0.4375 -0.42187,1.40625 l 0,3.60938 -1.0625,0 0,-4.04688 q 0,-0.70312 -0.26563,-1.04687 -0.25,-0.35938 -0.82812,-0.35938 -0.45313,0 -0.82813,0.23438 -0.375,0.23437 -0.54687,0.6875 -0.17188,0.45312 -0.17188,1.29687 l 0,3.23438 -1.04687,0 z m 15.24609,-1.01563 0,1.01563 -5.6875,0 q 0,-0.375 0.125,-0.73438 0.21875,-0.57812 0.6875,-1.14062 0.48437,-0.5625 1.39062,-1.29688 1.40625,-1.15625 1.89063,-1.82812 0.5,-0.67188 0.5,-1.26563 0,-0.625 -0.45313,-1.04687 -0.45312,-0.4375 -1.17187,-0.4375 -0.76563,0 -1.21875,0.45312 -0.45313,0.45313 -0.46875,1.26563 l -1.07813,-0.10938 q 0.10938,-1.21875 0.82813,-1.84375 0.73437,-0.64062 1.96875,-0.64062 1.23437,0 1.95312,0.6875 0.71875,0.6875 0.71875,1.70312 0,0.51563 -0.21875,1.01563 -0.20312,0.48437 -0.70312,1.04687 -0.48438,0.54688 -1.60938,1.5 -0.95312,0.79688 -1.23437,1.09375 -0.26563,0.28125 -0.4375,0.5625 l 4.21875,0 z"
       id="path3763"
       inkscape:connector-curvature="0"
       style="fill:#000000;fill-rule:nonzero" />
    <path
       d="m 255.95013,223.72948 77.29132,0 0,22.83464 -77.29132,0 z"
       id="path3765"
       inkscape:connector-curvature="0"
       style="fill:#000000;fill-opacity:0;fill-rule:evenodd" />
    <path
       d="m 270.997,238.65117 0,1.01562 -5.6875,0 q 0,-0.375 0.125,-0.73437 0.21875,-0.57813 0.6875,-1.14063 0.48438,-0.5625 1.39063,-1.29687 1.40625,-1.15625 1.89062,-1.82813 0.5,-0.67187 0.5,-1.26562 0,-0.625 -0.45312,-1.04688 -0.45313,-0.4375 -1.17188,-0.4375 -0.76562,0 -1.21875,0.45313 -0.45312,0.45312 -0.46875,1.26562 l -1.07812,-0.10937 q 0.10937,-1.21875 0.82812,-1.84375 0.73438,-0.64063 1.96875,-0.64063 1.23438,0 1.95313,0.6875 0.71875,0.6875 0.71875,1.70313 0,0.51562 -0.21875,1.01562 -0.20313,0.48438 -0.70313,1.04688 -0.48437,0.54687 -1.60937,1.5 -0.95313,0.79687 -1.23438,1.09375 -0.26562,0.28125 -0.4375,0.5625 l 4.21875,0 z m 1.12695,-3.21875 q 0,-1.53125 0.3125,-2.45313 0.3125,-0.9375 0.92188,-1.4375 0.625,-0.5 1.5625,-0.5 0.6875,0 1.20312,0.28125 0.53125,0.28125 0.875,0.8125 0.34375,0.51563 0.53125,1.26563 0.1875,0.75 0.1875,2.03125 0,1.51562 -0.3125,2.4375 -0.29687,0.92187 -0.92187,1.4375 -0.60938,0.5 -1.5625,0.5 -1.23438,0 -1.95313,-0.89063 -0.84375,-1.0625 -0.84375,-3.48437 z m 1.07813,0 q 0,2.10937 0.5,2.8125 0.5,0.70312 1.21875,0.70312 0.73437,0 1.21875,-0.70312 0.5,-0.70313 0.5,-2.8125 0,-2.125 -0.5,-2.8125 -0.48438,-0.70313 -1.23438,-0.70313 -0.71875,0 -1.15625,0.60938 -0.54687,0.78125 -0.54687,2.90625 z m 5.5957,0 q 0,-1.53125 0.3125,-2.45313 0.3125,-0.9375 0.92188,-1.4375 0.625,-0.5 1.5625,-0.5 0.6875,0 1.20312,0.28125 0.53125,0.28125 0.875,0.8125 0.34375,0.51563 0.53125,1.26563 0.1875,0.75 0.1875,2.03125 0,1.51562 -0.3125,2.4375 -0.29687,0.92187 -0.92187,1.4375 -0.60938,0.5 -1.5625,0.5 -1.23438,0 -1.95313,-0.89063 -0.84375,-1.0625 -0.84375,-3.48437 z m 1.07813,0 q 0,2.10937 0.5,2.8125 0.5,0.70312 1.21875,0.70312 0.73437,0 1.21875,-0.70312 0.5,-0.70313 0.5,-2.8125 0,-2.125 -0.5,-2.8125 -0.48438,-0.70313 -1.23438,-0.70313 -0.71875,0 -1.15625,0.60938 -0.54687,0.78125 -0.54687,2.90625 z m 7.51757,4.23437 -2.28125,-8.59375 1.17188,0 1.3125,5.64063 q 0.20312,0.875 0.35937,1.75 0.32813,-1.375 0.39063,-1.59375 l 1.625,-5.79688 1.375,0 1.23437,4.34375 q 0.45313,1.625 0.67188,3.04688 0.15625,-0.8125 0.42187,-1.875 l 1.34375,-5.51563 1.14063,0 -2.34375,8.59375 -1.10938,0 -1.79687,-6.54687 q -0.23438,-0.8125 -0.28125,-1 -0.125,0.57812 -0.25,1 l -1.8125,6.54687 -1.17188,0 z m 8.9043,0.14063 2.48438,-8.875 0.84375,0 -2.48438,8.875 -0.84375,0 z m 4.13086,-0.14063 0,-6.21875 0.9375,0 0,0.875 q 0.29688,-0.46875 0.78125,-0.73437 0.48438,-0.28125 1.10938,-0.28125 0.6875,0 1.125,0.28125 0.45312,0.28125 0.625,0.79687 0.75,-1.07812 1.92187,-1.07812 0.9375,0 1.42188,0.51562 0.5,0.5 0.5,1.57813 l 0,4.26562 -1.04688,0 0,-3.92187 q 0,-0.625 -0.10937,-0.90625 -0.0937,-0.28125 -0.35938,-0.45313 -0.26562,-0.17187 -0.64062,-0.17187 -0.65625,0 -1.09375,0.4375 -0.42188,0.4375 -0.42188,1.40625 l 0,3.60937 -1.0625,0 0,-4.04687 q 0,-0.70313 -0.26562,-1.04688 -0.25,-0.35937 -0.82813,-0.35937 -0.45312,0 -0.82812,0.23437 -0.375,0.23438 -0.54688,0.6875 -0.17187,0.45313 -0.17187,1.29688 l 0,3.23437 -1.04688,0 z m 15.24609,-1.01562 0,1.01562 -5.6875,0 q 0,-0.375 0.125,-0.73437 0.21875,-0.57813 0.6875,-1.14063 0.48438,-0.5625 1.39063,-1.29687 1.40625,-1.15625 1.89062,-1.82813 0.5,-0.67187 0.5,-1.26562 0,-0.625 -0.45312,-1.04688 -0.45313,-0.4375 -1.17188,-0.4375 -0.76562,0 -1.21875,0.45313 -0.45312,0.45312 -0.46875,1.26562 l -1.07812,-0.10937 q 0.10937,-1.21875 0.82812,-1.84375 0.73438,-0.64063 1.96875,-0.64063 1.23438,0 1.95313,0.6875 0.71875,0.6875 0.71875,1.70313 0,0.51562 -0.21875,1.01562 -0.20313,0.48438 -0.70313,1.04688 -0.48437,0.54687 -1.60937,1.5 -0.95313,0.79687 -1.23438,1.09375 -0.26562,0.28125 -0.4375,0.5625 l 4.21875,0 z"
       id="path3767"
       inkscape:connector-curvature="0"
       style="fill:#000000;fill-rule:nonzero" />
    <path
       d="m 236.60104,144.1798 12.62993,0"
       id="path3769"
       inkscape:connector-curvature="0"
       style="fill:#000000;fill-opacity:0;fill-rule:evenodd" />
    <path
       d="m 236.60104,144.1798 12.62993,0"
       id="path3771"
       inkscape:connector-curvature="0"
       style="fill-rule:evenodd;stroke:#000000;stroke-width:1;stroke-linecap:butt;stroke-linejoin:round" />
    <path
       d="m 236.60104,166.56168 12.62993,0"
       id="path3773"
       inkscape:connector-curvature="0"
       style="fill:#000000;fill-opacity:0;fill-rule:evenodd" />
    <path
       d="m 236.60104,166.56168 12.62993,0"
       id="path3775"
       inkscape:connector-curvature="0"
       style="fill-rule:evenodd;stroke:#ff0000;stroke-width:1;stroke-linecap:butt;stroke-linejoin:round" />
    <path
       d="m 236.60104,189.49344 12.62993,0"
       id="path3777"
       inkscape:connector-curvature="0"
       style="fill:#000000;fill-opacity:0;fill-rule:evenodd" />
    <path
       d="m 236.60104,189.49344 12.62993,0"
       id="path3779"
       inkscape:connector-curvature="0"
       style="fill-rule:evenodd;stroke:#00ff00;stroke-width:1;stroke-linecap:butt;stroke-linejoin:round" />
    <path
       d="m 236.60104,212.3202 12.62993,0"
       id="path3781"
       inkscape:connector-curvature="0"
       style="fill:#000000;fill-opacity:0;fill-rule:evenodd" />
    <path
       d="m 236.60104,212.3202 12.62993,0"
       id="path3783"
       inkscape:connector-curvature="0"
       style="fill-rule:evenodd;stroke:#00ffff;stroke-width:1;stroke-linecap:butt;stroke-linejoin:round" />
    <path
       d="m 236.60104,235.14699 12.62993,0"
       id="path3785"
       inkscape:connector-curvature="0"
       style="fill:#000000;fill-opacity:0;fill-rule:evenodd" />
    <path
       d="m 236.60104,235.14699 12.62993,0"
       id="path3787"
       inkscape:connector-curvature="0"
       style="fill-rule:evenodd;stroke:#4a86e8;stroke-width:1;stroke-linecap:butt;stroke-linejoin:round" />
    <path
       d="m 169.56168,112.97113 54.83466,0 0,31.87401 -54.83466,0 z"
       id="path3789"
       inkscape:connector-curvature="0"
       style="fill:#000000;fill-opacity:0;fill-rule:evenodd" />
    <path
       d="m 182.19667,132.29689 1.64062,-0.21875 q 0.28125,1.40625 0.95313,2.01562 0.6875,0.60938 1.65625,0.60938 1.15625,0 1.95312,-0.79688 0.79688,-0.79687 0.79688,-1.98437 0,-1.125 -0.73438,-1.85938 -0.73437,-0.73437 -1.875,-0.73437 -0.46875,0 -1.15625,0.17187 l 0.1875,-1.4375 q 0.15625,0.0156 0.26563,0.0156 1.04687,0 1.875,-0.54688 0.84375,-0.54688 0.84375,-1.67188 0,-0.90625 -0.60938,-1.5 -0.60937,-0.59375 -1.57812,-0.59375 -0.95313,0 -1.59375,0.60938 -0.64063,0.59375 -0.8125,1.79687 l -1.64063,-0.29687 q 0.29688,-1.64063 1.35938,-2.54688 1.0625,-0.90625 2.65625,-0.90625 1.09375,0 2,0.46875 0.92187,0.46875 1.40625,1.28125 0.5,0.8125 0.5,1.71875 0,0.85938 -0.46875,1.57813 -0.46875,0.70313 -1.375,1.125 1.1875,0.28125 1.84375,1.14063 0.65625,0.85937 0.65625,2.15625 0,1.73437 -1.28125,2.95312 -1.26563,1.21875 -3.21875,1.21875 -1.76563,0 -2.92188,-1.04687 -1.15625,-1.04688 -1.32812,-2.71875 z m 10.37572,-3.0625 q 0,-2.35938 0.48437,-3.79688 0.48438,-1.45313 1.4375,-2.23438 0.96875,-0.78125 2.42188,-0.78125 1.07812,0 1.89062,0.4375 0.8125,0.42188 1.32813,1.25 0.53125,0.8125 0.82812,1.98438 0.3125,1.15625 0.3125,3.14063 0,2.35937 -0.48437,3.8125 -0.48438,1.4375 -1.45313,2.23437 -0.95312,0.78125 -2.42187,0.78125 -1.92188,0 -3.03125,-1.39062 -1.3125,-1.67188 -1.3125,-5.4375 z m 1.67187,0 q 0,3.29687 0.76563,4.39062 0.78125,1.07813 1.90625,1.07813 1.14062,0 1.90625,-1.09375 0.76562,-1.09375 0.76562,-4.375 0,-3.29688 -0.76562,-4.37501 -0.76563,-1.07812 -1.92188,-1.07812 -1.125,0 -1.79687,0.95312 -0.85938,1.21875 -0.85938,4.50001 z m 8.70384,0 q 0,-2.35938 0.48438,-3.79688 0.48437,-1.45313 1.4375,-2.23438 0.96875,-0.78125 2.42187,-0.78125 1.07813,0 1.89063,0.4375 0.8125,0.42188 1.32812,1.25 0.53125,0.8125 0.82813,1.98438 0.3125,1.15625 0.3125,3.14063 0,2.35937 -0.48438,3.8125 -0.48437,1.4375 -1.45312,2.23437 -0.95313,0.78125 -2.42188,0.78125 -1.92187,0 -3.03125,-1.39062 -1.3125,-1.67188 -1.3125,-5.4375 z m 1.67188,0 q 0,3.29687 0.76562,4.39062 0.78125,1.07813 1.90625,1.07813 1.14063,0 1.90625,-1.09375 0.76563,-1.09375 0.76563,-4.375 0,-3.29688 -0.76563,-4.37501 -0.76562,-1.07812 -1.92187,-1.07812 -1.125,0 -1.79688,0.95312 -0.85937,1.21875 -0.85937,4.50001 z"
       id="path3791"
       inkscape:connector-curvature="0"
       style="fill:#999999;fill-rule:nonzero" />
    <path
       d="m 169.56168,159.24147 54.83466,0 0,31.87401 -54.83466,0 z"
       id="path3793"
       inkscape:connector-curvature="0"
       style="fill:#000000;fill-opacity:0;fill-rule:evenodd" />
    <path
       d="m 190.80605,180.52036 0,1.57812 -8.82813,0 q -0.0156,-0.59375 0.1875,-1.14062 0.34375,-0.90625 1.07813,-1.78125 0.75,-0.875 2.15625,-2.01563 2.17187,-1.78125 2.9375,-2.82812 0.76562,-1.04688 0.76562,-1.96875 0,-0.98438 -0.70312,-1.64063 -0.6875,-0.67187 -1.8125,-0.67187 -1.1875,0 -1.90625,0.71875 -0.70313,0.70312 -0.70313,1.95312 l -1.6875,-0.17187 q 0.17188,-1.89063 1.29688,-2.875 1.14062,-0.98438 3.03125,-0.98438 1.92187,0 3.04687,1.0625 1.125,1.0625 1.125,2.64063 0,0.79687 -0.32812,1.57812 -0.32813,0.78125 -1.09375,1.64063 -0.75,0.84375 -2.53125,2.34375 -1.46875,1.23437 -1.89063,1.6875 -0.42187,0.4375 -0.6875,0.875 l 6.54688,0 z m 1.76634,-1.92188 1.71875,-0.14062 q 0.1875,1.25 0.875,1.89062 0.70313,0.625 1.6875,0.625 1.1875,0 2,-0.89062 0.82813,-0.89063 0.82813,-2.35938 0,-1.40625 -0.79688,-2.21875 -0.78125,-0.8125 -2.0625,-0.8125 -0.78125,0 -1.42187,0.35938 -0.64063,0.35937 -1,0.9375 l -1.54688,-0.20313 1.29688,-6.85937 6.64062,0 0,1.5625 -5.32812,0 -0.71875,3.59375 q 1.20312,-0.84375 2.51562,-0.84375 1.75,0 2.95313,1.21875 1.20312,1.20312 1.20312,3.10937 0,1.8125 -1.04687,3.14063 -1.29688,1.625 -3.51563,1.625 -1.8125,0 -2.96875,-1.01563 -1.15625,-1.03125 -1.3125,-2.71875 z m 10.37572,-3.09375 q 0,-2.35937 0.48437,-3.79687 0.48438,-1.45313 1.4375,-2.23438 0.96875,-0.78125 2.42188,-0.78125 1.07812,0 1.89062,0.4375 0.8125,0.42188 1.32813,1.25 0.53125,0.8125 0.82812,1.98438 0.3125,1.15625 0.3125,3.14062 0,2.35938 -0.48437,3.8125 -0.48438,1.4375 -1.45313,2.23438 -0.95312,0.78125 -2.42187,0.78125 -1.92188,0 -3.03125,-1.39063 -1.3125,-1.67187 -1.3125,-5.4375 z m 1.67187,0 q 0,3.29688 0.76563,4.39063 0.78125,1.07812 1.90625,1.07812 1.14062,0 1.90625,-1.09375 0.76562,-1.09375 0.76562,-4.375 0,-3.29687 -0.76562,-4.375 -0.76563,-1.07812 -1.92188,-1.07812 -1.125,0 -1.79687,0.95312 -0.85938,1.21875 -0.85938,4.5 z"
       id="path3795"
       inkscape:connector-curvature="0"
       style="fill:#999999;fill-rule:nonzero" />
    <path
       d="m 169.56168,205.51181 54.83466,0 0,31.87402 -54.83466,0 z"
       id="path3797"
       inkscape:connector-curvature="0"
       style="fill:#000000;fill-opacity:0;fill-rule:evenodd" />
    <path
       d="m 190.80605,226.7907 0,1.57812 -8.82813,0 q -0.0156,-0.59375 0.1875,-1.14062 0.34375,-0.90625 1.07813,-1.78125 0.75,-0.875 2.15625,-2.01563 2.17187,-1.78125 2.9375,-2.82812 0.76562,-1.04688 0.76562,-1.96875 0,-0.98438 -0.70312,-1.64063 -0.6875,-0.67187 -1.8125,-0.67187 -1.1875,0 -1.90625,0.71875 -0.70313,0.70312 -0.70313,1.95312 l -1.6875,-0.17187 q 0.17188,-1.89063 1.29688,-2.875 1.14062,-0.98438 3.03125,-0.98438 1.92187,0 3.04687,1.0625 1.125,1.0625 1.125,2.64063 0,0.79687 -0.32812,1.57812 -0.32813,0.78125 -1.09375,1.64063 -0.75,0.84375 -2.53125,2.34375 -1.46875,1.23437 -1.89063,1.6875 -0.42187,0.4375 -0.6875,0.875 l 6.54688,0 z m 1.76634,-5.01563 q 0,-2.35937 0.48438,-3.79687 0.48437,-1.45313 1.4375,-2.23438 0.96875,-0.78125 2.42187,-0.78125 1.07813,0 1.89063,0.4375 0.8125,0.42188 1.32812,1.25 0.53125,0.8125 0.82813,1.98438 0.3125,1.15625 0.3125,3.14062 0,2.35938 -0.48438,3.8125 -0.48437,1.4375 -1.45312,2.23438 -0.95313,0.78125 -2.42188,0.78125 -1.92187,0 -3.03125,-1.39063 -1.3125,-1.67187 -1.3125,-5.4375 z m 1.67188,0 q 0,3.29688 0.76562,4.39063 0.78125,1.07812 1.90625,1.07812 1.14063,0 1.90625,-1.09375 0.76563,-1.09375 0.76563,-4.375 0,-3.29687 -0.76563,-4.375 -0.76562,-1.07812 -1.92187,-1.07812 -1.125,0 -1.79688,0.95312 -0.85937,1.21875 -0.85937,4.5 z m 8.70384,0 q 0,-2.35937 0.48437,-3.79687 0.48438,-1.45313 1.4375,-2.23438 0.96875,-0.78125 2.42188,-0.78125 1.07812,0 1.89062,0.4375 0.8125,0.42188 1.32813,1.25 0.53125,0.8125 0.82812,1.98438 0.3125,1.15625 0.3125,3.14062 0,2.35938 -0.48437,3.8125 -0.48438,1.4375 -1.45313,2.23438 -0.95312,0.78125 -2.42187,0.78125 -1.92188,0 -3.03125,-1.39063 -1.3125,-1.67187 -1.3125,-5.4375 z m 1.67187,0 q 0,3.29688 0.76563,4.39063 0.78125,1.07812 1.90625,1.07812 1.14062,0 1.90625,-1.09375 0.76562,-1.09375 0.76562,-4.375 0,-3.29687 -0.76562,-4.375 -0.76563,-1.07812 -1.92188,-1.07812 -1.125,0 -1.79687,0.95312 -0.85938,1.21875 -0.85938,4.5 z"
       id="path3799"
       inkscape:connector-curvature="0"
       style="fill:#999999;fill-rule:nonzero" />
    <path
       d="m 169.56168,251.99738 54.83466,0 0,31.87402 -54.83466,0 z"
       id="path3801"
       inkscape:connector-curvature="0"
       style="fill:#000000;fill-opacity:0;fill-rule:evenodd" />
    <path
       d="m 188.36855,274.85437 -1.64063,0 0,-10.45312 q -0.59375,0.5625 -1.5625,1.14062 -0.95312,0.5625 -1.71875,0.84375 l 0,-1.59375 q 1.375,-0.64062 2.40625,-1.5625 1.03125,-0.92187 1.45313,-1.78125 l 1.0625,0 0,13.40625 z m 4.20384,-3.5 1.71875,-0.14062 q 0.1875,1.25 0.875,1.89062 0.70313,0.625 1.6875,0.625 1.1875,0 2,-0.89062 0.82813,-0.89063 0.82813,-2.35938 0,-1.40625 -0.79688,-2.21875 -0.78125,-0.8125 -2.0625,-0.8125 -0.78125,0 -1.42187,0.35938 -0.64063,0.35937 -1,0.9375 l -1.54688,-0.20313 1.29688,-6.85937 6.64062,0 0,1.5625 -5.32812,0 -0.71875,3.59375 q 1.20312,-0.84375 2.51562,-0.84375 1.75,0 2.95313,1.21875 1.20312,1.20312 1.20312,3.10937 0,1.8125 -1.04687,3.14063 -1.29688,1.625 -3.51563,1.625 -1.8125,0 -2.96875,-1.01563 -1.15625,-1.03125 -1.3125,-2.71875 z m 10.37572,-3.09375 q 0,-2.35937 0.48437,-3.79687 0.48438,-1.45313 1.4375,-2.23438 0.96875,-0.78125 2.42188,-0.78125 1.07812,0 1.89062,0.4375 0.8125,0.42188 1.32813,1.25 0.53125,0.8125 0.82812,1.98438 0.3125,1.15625 0.3125,3.14062 0,2.35938 -0.48437,3.8125 -0.48438,1.4375 -1.45313,2.23438 -0.95312,0.78125 -2.42187,0.78125 -1.92188,0 -3.03125,-1.39063 -1.3125,-1.67187 -1.3125,-5.4375 z m 1.67187,0 q 0,3.29688 0.76563,4.39063 0.78125,1.07812 1.90625,1.07812 1.14062,0 1.90625,-1.09375 0.76562,-1.09375 0.76562,-4.375 0,-3.29687 -0.76562,-4.375 -0.76563,-1.07812 -1.92188,-1.07812 -1.125,0 -1.79687,0.95312 -0.85938,1.21875 -0.85938,4.5 z"
       id="path3803"
       inkscape:connector-curvature="0"
       style="fill:#999999;fill-rule:nonzero" />
    <path
       d="m 169.56168,298.48294 54.83466,0 0,31.87402 -54.83466,0 z"
       id="path3805"
       inkscape:connector-curvature="0"
       style="fill:#000000;fill-opacity:0;fill-rule:evenodd" />
    <path
       d="m 188.36855,321.33994 -1.64063,0 0,-10.45312 q -0.59375,0.5625 -1.5625,1.14062 -0.95312,0.5625 -1.71875,0.84375 l 0,-1.59375 q 1.375,-0.64062 2.40625,-1.5625 1.03125,-0.92187 1.45313,-1.78125 l 1.0625,0 0,13.40625 z m 4.20384,-6.59375 q 0,-2.35937 0.48438,-3.79687 0.48437,-1.45313 1.4375,-2.23438 0.96875,-0.78125 2.42187,-0.78125 1.07813,0 1.89063,0.4375 0.8125,0.42188 1.32812,1.25 0.53125,0.8125 0.82813,1.98438 0.3125,1.15625 0.3125,3.14062 0,2.35938 -0.48438,3.8125 -0.48437,1.4375 -1.45312,2.23438 -0.95313,0.78125 -2.42188,0.78125 -1.92187,0 -3.03125,-1.39063 -1.3125,-1.67187 -1.3125,-5.4375 z m 1.67188,0 q 0,3.29688 0.76562,4.39063 0.78125,1.07812 1.90625,1.07812 1.14063,0 1.90625,-1.09375 0.76563,-1.09375 0.76563,-4.375 0,-3.29687 -0.76563,-4.375 -0.76562,-1.07812 -1.92187,-1.07812 -1.125,0 -1.79688,0.95312 -0.85937,1.21875 -0.85937,4.5 z m 8.70384,0 q 0,-2.35937 0.48437,-3.79687 0.48438,-1.45313 1.4375,-2.23438 0.96875,-0.78125 2.42188,-0.78125 1.07812,0 1.89062,0.4375 0.8125,0.42188 1.32813,1.25 0.53125,0.8125 0.82812,1.98438 0.3125,1.15625 0.3125,3.14062 0,2.35938 -0.48437,3.8125 -0.48438,1.4375 -1.45313,2.23438 -0.95312,0.78125 -2.42187,0.78125 -1.92188,0 -3.03125,-1.39063 -1.3125,-1.67187 -1.3125,-5.4375 z m 1.67187,0 q 0,3.29688 0.76563,4.39063 0.78125,1.07812 1.90625,1.07812 1.14062,0 1.90625,-1.09375 0.76562,-1.09375 0.76562,-4.375 0,-3.29687 -0.76562,-4.375 -0.76563,-1.07812 -1.92188,-1.07812 -1.125,0 -1.79687,0.95312 -0.85938,1.21875 -0.85938,4.5 z"
       id="path3807"
       inkscape:connector-curvature="0"
       style="fill:#999999;fill-rule:nonzero" />
    <path
       d="m 169.56168,344.9685 54.83466,0 0,31.87402 -54.83466,0 z"
       id="path3809"
       inkscape:connector-curvature="0"
       style="fill:#000000;fill-opacity:0;fill-rule:evenodd" />
    <path
       d="m 187.38454,364.3255 1.71875,-0.14063 q 0.1875,1.25 0.875,1.89063 0.70312,0.625 1.6875,0.625 1.1875,0 2,-0.89063 0.82812,-0.89062 0.82812,-2.35937 0,-1.40625 -0.79687,-2.21875 -0.78125,-0.8125 -2.0625,-0.8125 -0.78125,0 -1.42188,0.35937 -0.64062,0.35938 -1,0.9375 l -1.54687,-0.20312 1.29687,-6.85938 6.64063,0 0,1.5625 -5.32813,0 -0.71875,3.59375 q 1.20313,-0.84375 2.51563,-0.84375 1.75,0 2.95312,1.21875 1.20313,1.20313 1.20313,3.10938 0,1.8125 -1.04688,3.14062 -1.29687,1.625 -3.51562,1.625 -1.8125,0 -2.96875,-1.01562 -1.15625,-1.03125 -1.3125,-2.71875 z m 10.37572,-3.09375 q 0,-2.35938 0.48437,-3.79688 0.48438,-1.45312 1.4375,-2.23437 0.96875,-0.78125 2.42188,-0.78125 1.07812,0 1.89062,0.4375 0.8125,0.42187 1.32813,1.25 0.53125,0.8125 0.82812,1.98437 0.3125,1.15625 0.3125,3.14063 0,2.35937 -0.48437,3.8125 -0.48438,1.4375 -1.45313,2.23437 -0.95312,0.78125 -2.42187,0.78125 -1.92188,0 -3.03125,-1.39062 -1.3125,-1.67188 -1.3125,-5.4375 z m 1.67187,0 q 0,3.29687 0.76563,4.39062 0.78125,1.07813 1.90625,1.07813 1.14062,0 1.90625,-1.09375 0.76562,-1.09375 0.76562,-4.375 0,-3.29688 -0.76562,-4.375 -0.76563,-1.07813 -1.92188,-1.07813 -1.125,0 -1.79687,0.95313 -0.85938,1.21875 -0.85938,4.5 z"
       id="path3811"
       inkscape:connector-curvature="0"
       style="fill:#999999;fill-rule:nonzero" />
    <path
       d="m 301.24146,408.08398 54.83466,0 0,31.87402 -54.83466,0 z"
       id="path3813"
       inkscape:connector-curvature="0"
       style="fill:#000000;fill-opacity:0;fill-rule:evenodd" />
    <path
       d="m 325.2362,430.941 -1.64063,0 0,-10.45313 q -0.59375,0.5625 -1.5625,1.14063 -0.95312,0.5625 -1.71875,0.84375 l 0,-1.59375 q 1.375,-0.64063 2.40625,-1.5625 1.03125,-0.92188 1.45313,-1.78125 l 1.0625,0 0,13.40625 z m 4.20383,-6.59375 q 0,-2.35938 0.48437,-3.79688 0.48438,-1.45312 1.4375,-2.23437 0.96875,-0.78125 2.42188,-0.78125 1.07812,0 1.89062,0.4375 0.8125,0.42187 1.32813,1.25 0.53125,0.8125 0.82812,1.98437 0.3125,1.15625 0.3125,3.14063 0,2.35937 -0.48437,3.8125 -0.48438,1.4375 -1.45313,2.23437 -0.95312,0.78125 -2.42187,0.78125 -1.92188,0 -3.03125,-1.39062 -1.3125,-1.67188 -1.3125,-5.4375 z m 1.67187,0 q 0,3.29687 0.76563,4.39062 0.78125,1.07813 1.90625,1.07813 1.14062,0 1.90625,-1.09375 0.76562,-1.09375 0.76562,-4.375 0,-3.29688 -0.76562,-4.375 -0.76563,-1.07813 -1.92188,-1.07813 -1.125,0 -1.79687,0.95313 -0.85938,1.21875 -0.85938,4.5 z"
       id="path3815"
       inkscape:connector-curvature="0"
       style="fill:#999999;fill-rule:nonzero" />
    <path
       d="m 404.9895,409.8084 54.83466,0 0,31.87399 -54.83466,0 z"
       id="path3817"
       inkscape:connector-curvature="0"
       style="fill:#000000;fill-opacity:0;fill-rule:evenodd" />
    <path
       d="m 431.42172,431.08728 0,1.57813 -8.82813,0 q -0.0156,-0.59375 0.1875,-1.14063 0.34375,-0.90625 1.07813,-1.78125 0.75,-0.875 2.15625,-2.01562 2.17187,-1.78125 2.9375,-2.82813 0.76562,-1.04687 0.76562,-1.96875 0,-0.98437 -0.70312,-1.64062 -0.6875,-0.67188 -1.8125,-0.67188 -1.1875,0 -1.90625,0.71875 -0.70313,0.70313 -0.70313,1.95313 l -1.6875,-0.17188 q 0.17188,-1.89062 1.29688,-2.875 1.14062,-0.98437 3.03125,-0.98437 1.92187,0 3.04687,1.0625 1.125,1.0625 1.125,2.64062 0,0.79688 -0.32812,1.57813 -0.32813,0.78125 -1.09375,1.64062 -0.75,0.84375 -2.53125,2.34375 -1.46875,1.23438 -1.89063,1.6875 -0.42187,0.4375 -0.6875,0.875 l 6.54688,0 z m 1.76636,-5.01562 q 0,-2.35938 0.48437,-3.79688 0.48438,-1.45312 1.4375,-2.23437 0.96875,-0.78125 2.42188,-0.78125 1.07812,0 1.89062,0.4375 0.8125,0.42187 1.32813,1.25 0.53125,0.8125 0.82812,1.98437 0.3125,1.15625 0.3125,3.14063 0,2.35937 -0.48437,3.8125 -0.48438,1.4375 -1.45313,2.23437 -0.95312,0.78125 -2.42187,0.78125 -1.92188,0 -3.03125,-1.39062 -1.3125,-1.67188 -1.3125,-5.4375 z m 1.67187,0 q 0,3.29687 0.76563,4.39062 0.78125,1.07813 1.90625,1.07813 1.14062,0 1.90625,-1.09375 0.76562,-1.09375 0.76562,-4.375 0,-3.29688 -0.76562,-4.375 -0.76563,-1.07813 -1.92188,-1.07813 -1.125,0 -1.79687,0.95313 -0.85938,1.21875 -0.85938,4.5 z"
       id="path3819"
       inkscape:connector-curvature="0"
       style="fill:#999999;fill-rule:nonzero" />
    <path
       d="m 508.73752,409.8084 54.83469,0 0,31.87399 -54.83469,0 z"
       id="path3821"
       inkscape:connector-curvature="0"
       style="fill:#000000;fill-opacity:0;fill-rule:evenodd" />
    <path
       d="m 526.56036,429.13416 1.64062,-0.21875 q 0.28125,1.40625 0.95313,2.01562 0.6875,0.60938 1.65625,0.60938 1.15625,0 1.95312,-0.79688 0.79688,-0.79687 0.79688,-1.98437 0,-1.125 -0.73438,-1.85938 -0.73437,-0.73437 -1.875,-0.73437 -0.46875,0 -1.15625,0.17187 l 0.1875,-1.4375 q 0.15625,0.0156 0.26563,0.0156 1.04687,0 1.875,-0.54688 0.84375,-0.54687 0.84375,-1.67187 0,-0.90625 -0.60938,-1.5 -0.60937,-0.59375 -1.57812,-0.59375 -0.95313,0 -1.59375,0.60937 -0.64063,0.59375 -0.8125,1.79688 l -1.64063,-0.29688 q 0.29688,-1.64062 1.35938,-2.54687 1.0625,-0.90625 2.65625,-0.90625 1.09375,0 2,0.46875 0.92187,0.46875 1.40625,1.28125 0.5,0.8125 0.5,1.71875 0,0.85937 -0.46875,1.57812 -0.46875,0.70313 -1.375,1.125 1.1875,0.28125 1.84375,1.14063 0.65625,0.85937 0.65625,2.15625 0,1.73437 -1.28125,2.95312 -1.26563,1.21875 -3.21875,1.21875 -1.76563,0 -2.92188,-1.04687 -1.15625,-1.04688 -1.32812,-2.71875 z m 10.37573,-3.0625 q 0,-2.35938 0.48438,-3.79688 0.48437,-1.45312 1.4375,-2.23437 0.96875,-0.78125 2.42187,-0.78125 1.07813,0 1.89063,0.4375 0.8125,0.42187 1.32812,1.25 0.53125,0.8125 0.82813,1.98437 0.3125,1.15625 0.3125,3.14063 0,2.35937 -0.48438,3.8125 -0.48437,1.4375 -1.45312,2.23437 -0.95313,0.78125 -2.42188,0.78125 -1.92187,0 -3.03125,-1.39062 -1.3125,-1.67188 -1.3125,-5.4375 z m 1.67188,0 q 0,3.29687 0.76562,4.39062 0.78125,1.07813 1.90625,1.07813 1.14063,0 1.90625,-1.09375 0.76563,-1.09375 0.76563,-4.375 0,-3.29688 -0.76563,-4.375 -0.76562,-1.07813 -1.92187,-1.07813 -1.125,0 -1.79688,0.95313 -0.85937,1.21875 -0.85937,4.5 z"
       id="path3823"
       inkscape:connector-curvature="0"
       style="fill:#999999;fill-rule:nonzero" />
    <path
       d="m 612.48553,409.8084 54.83466,0 0,31.87399 -54.83466,0 z"
       id="path3825"
       inkscape:connector-curvature="0"
       style="fill:#000000;fill-opacity:0;fill-rule:evenodd" />
    <path
       d="m 635.5584,432.6654 0,-3.20313 -5.79688,0 0,-1.5 6.09375,-8.65625 1.34375,0 0,8.65625 1.79688,0 0,1.5 -1.79688,0 0,3.20313 -1.64062,0 z m 0,-4.70313 0,-6.01562 -4.1875,6.01562 4.1875,0 z m 5.12573,-1.89062 q 0,-2.35938 0.48438,-3.79688 0.48437,-1.45312 1.4375,-2.23437 0.96875,-0.78125 2.42187,-0.78125 1.07813,0 1.89063,0.4375 0.8125,0.42187 1.32812,1.25 0.53125,0.8125 0.82813,1.98437 0.3125,1.15625 0.3125,3.14063 0,2.35937 -0.48438,3.8125 -0.48437,1.4375 -1.45312,2.23437 -0.95313,0.78125 -2.42188,0.78125 -1.92187,0 -3.03125,-1.39062 -1.3125,-1.67188 -1.3125,-5.4375 z m 1.67188,0 q 0,3.29687 0.76562,4.39062 0.78125,1.07813 1.90625,1.07813 1.14063,0 1.90625,-1.09375 0.76563,-1.09375 0.76563,-4.375 0,-3.29688 -0.76563,-4.375 -0.76562,-1.07813 -1.92187,-1.07813 -1.125,0 -1.79688,0.95313 -0.85937,1.21875 -0.85937,4.5 z"
       id="path3827"
       inkscape:connector-curvature="0"
       style="fill:#999999;fill-rule:nonzero" />
  </g>
</svg>
